<?xml version="1.0" encoding="utf-8" standalone="no"?>
<!DOCTYPE svg PUBLIC "-//W3C//DTD SVG 1.1//EN"
  "http://www.w3.org/Graphics/SVG/1.1/DTD/svg11.dtd">
<svg xmlns:xlink="http://www.w3.org/1999/xlink" width="856.273461pt" height="369.274281pt" viewBox="0 0 856.273461 369.274281" xmlns="http://www.w3.org/2000/svg" version="1.1">
 <metadata>
  <rdf:RDF xmlns:dc="http://purl.org/dc/elements/1.1/" xmlns:cc="http://creativecommons.org/ns#" xmlns:rdf="http://www.w3.org/1999/02/22-rdf-syntax-ns#">
   <cc:Work>
    <dc:type rdf:resource="http://purl.org/dc/dcmitype/StillImage"/>
    <dc:date>2026-06-15T17:16:57.992934</dc:date>
    <dc:format>image/svg+xml</dc:format>
    <dc:creator>
     <cc:Agent>
      <dc:title>Matplotlib v3.7.2, https://matplotlib.org/</dc:title>
     </cc:Agent>
    </dc:creator>
   </cc:Work>
  </rdf:RDF>
 </metadata>
 <defs>
  <style type="text/css">*{stroke-linejoin: round; stroke-linecap: butt}</style>
 </defs>
 <g id="figure_1">
  <g id="patch_1">
   <path d="M 0 369.274281 
L 856.273461 369.274281 
L 856.273461 0 
L 0 0 
z
" style="fill: #ffffff"/>
  </g>
  <g id="axes_1">
   <g id="patch_2">
    <path d="M 42.53875 321.64 
L 420.898461 321.64 
L 420.898461 66.32 
L 42.53875 66.32 
z
" style="fill: #ffffff"/>
   </g>
   <g id="matplotlib.axis_1">
    <g id="xtick_1">
     <g id="line2d_1">
      <defs>
       <path id="m78f67c57b6" d="M 0 0 
L 0 3.5 
" style="stroke: #000000; stroke-width: 0.8"/>
      </defs>
      <g>
       <use xlink:href="#m78f67c57b6" x="59.736919" y="321.64" style="stroke: #000000; stroke-width: 0.8"/>
      </g>
     </g>
     <g id="text_1">
      <!-- 200 -->
      <g transform="translate(51.147544 335.478594) scale(0.09 -0.09)">
       <defs>
        <path id="DejaVuSans-32" d="M 1228 531 
L 3431 531 
L 3431 0 
L 469 0 
L 469 531 
Q 828 903 1448 1529 
Q 2069 2156 2228 2338 
Q 2531 2678 2651 2914 
Q 2772 3150 2772 3378 
Q 2772 3750 2511 3984 
Q 2250 4219 1831 4219 
Q 1534 4219 1204 4116 
Q 875 4013 500 3803 
L 500 4441 
Q 881 4594 1212 4672 
Q 1544 4750 1819 4750 
Q 2544 4750 2975 4387 
Q 3406 4025 3406 3419 
Q 3406 3131 3298 2873 
Q 3191 2616 2906 2266 
Q 2828 2175 2409 1742 
Q 1991 1309 1228 531 
z
" transform="scale(0.015625)"/>
        <path id="DejaVuSans-30" d="M 2034 4250 
Q 1547 4250 1301 3770 
Q 1056 3291 1056 2328 
Q 1056 1369 1301 889 
Q 1547 409 2034 409 
Q 2525 409 2770 889 
Q 3016 1369 3016 2328 
Q 3016 3291 2770 3770 
Q 2525 4250 2034 4250 
z
M 2034 4750 
Q 2819 4750 3233 4129 
Q 3647 3509 3647 2328 
Q 3647 1150 3233 529 
Q 2819 -91 2034 -91 
Q 1250 -91 836 529 
Q 422 1150 422 2328 
Q 422 3509 836 4129 
Q 1250 4750 2034 4750 
z
" transform="scale(0.015625)"/>
       </defs>
       <use xlink:href="#DejaVuSans-32"/>
       <use xlink:href="#DejaVuSans-30" x="63.623047"/>
       <use xlink:href="#DejaVuSans-30" x="127.246094"/>
      </g>
      <!-- (10.0:1) -->
      <g transform="translate(41.826919 345.556625) scale(0.09 -0.09)">
       <defs>
        <path id="DejaVuSans-28" d="M 1984 4856 
Q 1566 4138 1362 3434 
Q 1159 2731 1159 2009 
Q 1159 1288 1364 580 
Q 1569 -128 1984 -844 
L 1484 -844 
Q 1016 -109 783 600 
Q 550 1309 550 2009 
Q 550 2706 781 3412 
Q 1013 4119 1484 4856 
L 1984 4856 
z
" transform="scale(0.015625)"/>
        <path id="DejaVuSans-31" d="M 794 531 
L 1825 531 
L 1825 4091 
L 703 3866 
L 703 4441 
L 1819 4666 
L 2450 4666 
L 2450 531 
L 3481 531 
L 3481 0 
L 794 0 
L 794 531 
z
" transform="scale(0.015625)"/>
        <path id="DejaVuSans-2e" d="M 684 794 
L 1344 794 
L 1344 0 
L 684 0 
L 684 794 
z
" transform="scale(0.015625)"/>
        <path id="DejaVuSans-3a" d="M 750 794 
L 1409 794 
L 1409 0 
L 750 0 
L 750 794 
z
M 750 3309 
L 1409 3309 
L 1409 2516 
L 750 2516 
L 750 3309 
z
" transform="scale(0.015625)"/>
        <path id="DejaVuSans-29" d="M 513 4856 
L 1013 4856 
Q 1481 4119 1714 3412 
Q 1947 2706 1947 2009 
Q 1947 1309 1714 600 
Q 1481 -109 1013 -844 
L 513 -844 
Q 928 -128 1133 580 
Q 1338 1288 1338 2009 
Q 1338 2731 1133 3434 
Q 928 4138 513 4856 
z
" transform="scale(0.015625)"/>
       </defs>
       <use xlink:href="#DejaVuSans-28"/>
       <use xlink:href="#DejaVuSans-31" x="39.013672"/>
       <use xlink:href="#DejaVuSans-30" x="102.636719"/>
       <use xlink:href="#DejaVuSans-2e" x="166.259766"/>
       <use xlink:href="#DejaVuSans-30" x="198.046875"/>
       <use xlink:href="#DejaVuSans-3a" x="261.669922"/>
       <use xlink:href="#DejaVuSans-31" x="295.361328"/>
       <use xlink:href="#DejaVuSans-29" x="358.984375"/>
      </g>
     </g>
    </g>
    <g id="xtick_2">
     <g id="line2d_2">
      <g>
       <use xlink:href="#m78f67c57b6" x="145.727762" y="321.64" style="stroke: #000000; stroke-width: 0.8"/>
      </g>
     </g>
     <g id="text_2">
      <!-- 400 -->
      <g transform="translate(137.138387 335.478594) scale(0.09 -0.09)">
       <defs>
        <path id="DejaVuSans-34" d="M 2419 4116 
L 825 1625 
L 2419 1625 
L 2419 4116 
z
M 2253 4666 
L 3047 4666 
L 3047 1625 
L 3713 1625 
L 3713 1100 
L 3047 1100 
L 3047 0 
L 2419 0 
L 2419 1100 
L 313 1100 
L 313 1709 
L 2253 4666 
z
" transform="scale(0.015625)"/>
       </defs>
       <use xlink:href="#DejaVuSans-34"/>
       <use xlink:href="#DejaVuSans-30" x="63.623047"/>
       <use xlink:href="#DejaVuSans-30" x="127.246094"/>
      </g>
      <!-- (5.0:1) -->
      <g transform="translate(130.680887 345.556625) scale(0.09 -0.09)">
       <defs>
        <path id="DejaVuSans-35" d="M 691 4666 
L 3169 4666 
L 3169 4134 
L 1269 4134 
L 1269 2991 
Q 1406 3038 1543 3061 
Q 1681 3084 1819 3084 
Q 2600 3084 3056 2656 
Q 3513 2228 3513 1497 
Q 3513 744 3044 326 
Q 2575 -91 1722 -91 
Q 1428 -91 1123 -41 
Q 819 9 494 109 
L 494 744 
Q 775 591 1075 516 
Q 1375 441 1709 441 
Q 2250 441 2565 725 
Q 2881 1009 2881 1497 
Q 2881 1984 2565 2268 
Q 2250 2553 1709 2553 
Q 1456 2553 1204 2497 
Q 953 2441 691 2322 
L 691 4666 
z
" transform="scale(0.015625)"/>
       </defs>
       <use xlink:href="#DejaVuSans-28"/>
       <use xlink:href="#DejaVuSans-35" x="39.013672"/>
       <use xlink:href="#DejaVuSans-2e" x="102.636719"/>
       <use xlink:href="#DejaVuSans-30" x="134.423828"/>
       <use xlink:href="#DejaVuSans-3a" x="198.046875"/>
       <use xlink:href="#DejaVuSans-31" x="231.738281"/>
       <use xlink:href="#DejaVuSans-29" x="295.361328"/>
      </g>
     </g>
    </g>
    <g id="xtick_3">
     <g id="line2d_3">
      <g>
       <use xlink:href="#m78f67c57b6" x="231.718605" y="321.64" style="stroke: #000000; stroke-width: 0.8"/>
      </g>
     </g>
     <g id="text_3">
      <!-- 600 -->
      <g transform="translate(223.12923 335.478594) scale(0.09 -0.09)">
       <defs>
        <path id="DejaVuSans-36" d="M 2113 2584 
Q 1688 2584 1439 2293 
Q 1191 2003 1191 1497 
Q 1191 994 1439 701 
Q 1688 409 2113 409 
Q 2538 409 2786 701 
Q 3034 994 3034 1497 
Q 3034 2003 2786 2293 
Q 2538 2584 2113 2584 
z
M 3366 4563 
L 3366 3988 
Q 3128 4100 2886 4159 
Q 2644 4219 2406 4219 
Q 1781 4219 1451 3797 
Q 1122 3375 1075 2522 
Q 1259 2794 1537 2939 
Q 1816 3084 2150 3084 
Q 2853 3084 3261 2657 
Q 3669 2231 3669 1497 
Q 3669 778 3244 343 
Q 2819 -91 2113 -91 
Q 1303 -91 875 529 
Q 447 1150 447 2328 
Q 447 3434 972 4092 
Q 1497 4750 2381 4750 
Q 2619 4750 2861 4703 
Q 3103 4656 3366 4563 
z
" transform="scale(0.015625)"/>
       </defs>
       <use xlink:href="#DejaVuSans-36"/>
       <use xlink:href="#DejaVuSans-30" x="63.623047"/>
       <use xlink:href="#DejaVuSans-30" x="127.246094"/>
      </g>
      <!-- (3.3:1) -->
      <g transform="translate(216.67173 345.556625) scale(0.09 -0.09)">
       <defs>
        <path id="DejaVuSans-33" d="M 2597 2516 
Q 3050 2419 3304 2112 
Q 3559 1806 3559 1356 
Q 3559 666 3084 287 
Q 2609 -91 1734 -91 
Q 1441 -91 1130 -33 
Q 819 25 488 141 
L 488 750 
Q 750 597 1062 519 
Q 1375 441 1716 441 
Q 2309 441 2620 675 
Q 2931 909 2931 1356 
Q 2931 1769 2642 2001 
Q 2353 2234 1838 2234 
L 1294 2234 
L 1294 2753 
L 1863 2753 
Q 2328 2753 2575 2939 
Q 2822 3125 2822 3475 
Q 2822 3834 2567 4026 
Q 2313 4219 1838 4219 
Q 1578 4219 1281 4162 
Q 984 4106 628 3988 
L 628 4550 
Q 988 4650 1302 4700 
Q 1616 4750 1894 4750 
Q 2613 4750 3031 4423 
Q 3450 4097 3450 3541 
Q 3450 3153 3228 2886 
Q 3006 2619 2597 2516 
z
" transform="scale(0.015625)"/>
       </defs>
       <use xlink:href="#DejaVuSans-28"/>
       <use xlink:href="#DejaVuSans-33" x="39.013672"/>
       <use xlink:href="#DejaVuSans-2e" x="102.636719"/>
       <use xlink:href="#DejaVuSans-33" x="134.423828"/>
       <use xlink:href="#DejaVuSans-3a" x="198.046875"/>
       <use xlink:href="#DejaVuSans-31" x="231.738281"/>
       <use xlink:href="#DejaVuSans-29" x="295.361328"/>
      </g>
     </g>
    </g>
    <g id="xtick_4">
     <g id="line2d_4">
      <g>
       <use xlink:href="#m78f67c57b6" x="317.709449" y="321.64" style="stroke: #000000; stroke-width: 0.8"/>
      </g>
     </g>
     <g id="text_4">
      <!-- 800 -->
      <g transform="translate(309.120074 335.478594) scale(0.09 -0.09)">
       <defs>
        <path id="DejaVuSans-38" d="M 2034 2216 
Q 1584 2216 1326 1975 
Q 1069 1734 1069 1313 
Q 1069 891 1326 650 
Q 1584 409 2034 409 
Q 2484 409 2743 651 
Q 3003 894 3003 1313 
Q 3003 1734 2745 1975 
Q 2488 2216 2034 2216 
z
M 1403 2484 
Q 997 2584 770 2862 
Q 544 3141 544 3541 
Q 544 4100 942 4425 
Q 1341 4750 2034 4750 
Q 2731 4750 3128 4425 
Q 3525 4100 3525 3541 
Q 3525 3141 3298 2862 
Q 3072 2584 2669 2484 
Q 3125 2378 3379 2068 
Q 3634 1759 3634 1313 
Q 3634 634 3220 271 
Q 2806 -91 2034 -91 
Q 1263 -91 848 271 
Q 434 634 434 1313 
Q 434 1759 690 2068 
Q 947 2378 1403 2484 
z
M 1172 3481 
Q 1172 3119 1398 2916 
Q 1625 2713 2034 2713 
Q 2441 2713 2670 2916 
Q 2900 3119 2900 3481 
Q 2900 3844 2670 4047 
Q 2441 4250 2034 4250 
Q 1625 4250 1398 4047 
Q 1172 3844 1172 3481 
z
" transform="scale(0.015625)"/>
       </defs>
       <use xlink:href="#DejaVuSans-38"/>
       <use xlink:href="#DejaVuSans-30" x="63.623047"/>
       <use xlink:href="#DejaVuSans-30" x="127.246094"/>
      </g>
      <!-- (2.5:1) -->
      <g transform="translate(302.662574 345.556625) scale(0.09 -0.09)">
       <use xlink:href="#DejaVuSans-28"/>
       <use xlink:href="#DejaVuSans-32" x="39.013672"/>
       <use xlink:href="#DejaVuSans-2e" x="102.636719"/>
       <use xlink:href="#DejaVuSans-35" x="134.423828"/>
       <use xlink:href="#DejaVuSans-3a" x="198.046875"/>
       <use xlink:href="#DejaVuSans-31" x="231.738281"/>
       <use xlink:href="#DejaVuSans-29" x="295.361328"/>
      </g>
     </g>
    </g>
    <g id="xtick_5">
     <g id="line2d_5">
      <g>
       <use xlink:href="#m78f67c57b6" x="403.700292" y="321.64" style="stroke: #000000; stroke-width: 0.8"/>
      </g>
     </g>
     <g id="text_5">
      <!-- 1000 -->
      <g transform="translate(392.247792 335.478594) scale(0.09 -0.09)">
       <use xlink:href="#DejaVuSans-31"/>
       <use xlink:href="#DejaVuSans-30" x="63.623047"/>
       <use xlink:href="#DejaVuSans-30" x="127.246094"/>
       <use xlink:href="#DejaVuSans-30" x="190.869141"/>
      </g>
      <!-- (2.0:1) -->
      <g transform="translate(388.653417 345.556625) scale(0.09 -0.09)">
       <use xlink:href="#DejaVuSans-28"/>
       <use xlink:href="#DejaVuSans-32" x="39.013672"/>
       <use xlink:href="#DejaVuSans-2e" x="102.636719"/>
       <use xlink:href="#DejaVuSans-30" x="134.423828"/>
       <use xlink:href="#DejaVuSans-3a" x="198.046875"/>
       <use xlink:href="#DejaVuSans-31" x="231.738281"/>
       <use xlink:href="#DejaVuSans-29" x="295.361328"/>
      </g>
     </g>
    </g>
    <g id="text_6">
     <!-- Cells subsampled  (all 2000 genes;  g:c ratio) -->
     <g transform="translate(107.029308 359.786625) scale(0.11 -0.11)">
      <defs>
       <path id="DejaVuSans-43" d="M 4122 4306 
L 4122 3641 
Q 3803 3938 3442 4084 
Q 3081 4231 2675 4231 
Q 1875 4231 1450 3742 
Q 1025 3253 1025 2328 
Q 1025 1406 1450 917 
Q 1875 428 2675 428 
Q 3081 428 3442 575 
Q 3803 722 4122 1019 
L 4122 359 
Q 3791 134 3420 21 
Q 3050 -91 2638 -91 
Q 1578 -91 968 557 
Q 359 1206 359 2328 
Q 359 3453 968 4101 
Q 1578 4750 2638 4750 
Q 3056 4750 3426 4639 
Q 3797 4528 4122 4306 
z
" transform="scale(0.015625)"/>
       <path id="DejaVuSans-65" d="M 3597 1894 
L 3597 1613 
L 953 1613 
Q 991 1019 1311 708 
Q 1631 397 2203 397 
Q 2534 397 2845 478 
Q 3156 559 3463 722 
L 3463 178 
Q 3153 47 2828 -22 
Q 2503 -91 2169 -91 
Q 1331 -91 842 396 
Q 353 884 353 1716 
Q 353 2575 817 3079 
Q 1281 3584 2069 3584 
Q 2775 3584 3186 3129 
Q 3597 2675 3597 1894 
z
M 3022 2063 
Q 3016 2534 2758 2815 
Q 2500 3097 2075 3097 
Q 1594 3097 1305 2825 
Q 1016 2553 972 2059 
L 3022 2063 
z
" transform="scale(0.015625)"/>
       <path id="DejaVuSans-6c" d="M 603 4863 
L 1178 4863 
L 1178 0 
L 603 0 
L 603 4863 
z
" transform="scale(0.015625)"/>
       <path id="DejaVuSans-73" d="M 2834 3397 
L 2834 2853 
Q 2591 2978 2328 3040 
Q 2066 3103 1784 3103 
Q 1356 3103 1142 2972 
Q 928 2841 928 2578 
Q 928 2378 1081 2264 
Q 1234 2150 1697 2047 
L 1894 2003 
Q 2506 1872 2764 1633 
Q 3022 1394 3022 966 
Q 3022 478 2636 193 
Q 2250 -91 1575 -91 
Q 1294 -91 989 -36 
Q 684 19 347 128 
L 347 722 
Q 666 556 975 473 
Q 1284 391 1588 391 
Q 1994 391 2212 530 
Q 2431 669 2431 922 
Q 2431 1156 2273 1281 
Q 2116 1406 1581 1522 
L 1381 1569 
Q 847 1681 609 1914 
Q 372 2147 372 2553 
Q 372 3047 722 3315 
Q 1072 3584 1716 3584 
Q 2034 3584 2315 3537 
Q 2597 3491 2834 3397 
z
" transform="scale(0.015625)"/>
       <path id="DejaVuSans-20" transform="scale(0.015625)"/>
       <path id="DejaVuSans-75" d="M 544 1381 
L 544 3500 
L 1119 3500 
L 1119 1403 
Q 1119 906 1312 657 
Q 1506 409 1894 409 
Q 2359 409 2629 706 
Q 2900 1003 2900 1516 
L 2900 3500 
L 3475 3500 
L 3475 0 
L 2900 0 
L 2900 538 
Q 2691 219 2414 64 
Q 2138 -91 1772 -91 
Q 1169 -91 856 284 
Q 544 659 544 1381 
z
M 1991 3584 
L 1991 3584 
z
" transform="scale(0.015625)"/>
       <path id="DejaVuSans-62" d="M 3116 1747 
Q 3116 2381 2855 2742 
Q 2594 3103 2138 3103 
Q 1681 3103 1420 2742 
Q 1159 2381 1159 1747 
Q 1159 1113 1420 752 
Q 1681 391 2138 391 
Q 2594 391 2855 752 
Q 3116 1113 3116 1747 
z
M 1159 2969 
Q 1341 3281 1617 3432 
Q 1894 3584 2278 3584 
Q 2916 3584 3314 3078 
Q 3713 2572 3713 1747 
Q 3713 922 3314 415 
Q 2916 -91 2278 -91 
Q 1894 -91 1617 61 
Q 1341 213 1159 525 
L 1159 0 
L 581 0 
L 581 4863 
L 1159 4863 
L 1159 2969 
z
" transform="scale(0.015625)"/>
       <path id="DejaVuSans-61" d="M 2194 1759 
Q 1497 1759 1228 1600 
Q 959 1441 959 1056 
Q 959 750 1161 570 
Q 1363 391 1709 391 
Q 2188 391 2477 730 
Q 2766 1069 2766 1631 
L 2766 1759 
L 2194 1759 
z
M 3341 1997 
L 3341 0 
L 2766 0 
L 2766 531 
Q 2569 213 2275 61 
Q 1981 -91 1556 -91 
Q 1019 -91 701 211 
Q 384 513 384 1019 
Q 384 1609 779 1909 
Q 1175 2209 1959 2209 
L 2766 2209 
L 2766 2266 
Q 2766 2663 2505 2880 
Q 2244 3097 1772 3097 
Q 1472 3097 1187 3025 
Q 903 2953 641 2809 
L 641 3341 
Q 956 3463 1253 3523 
Q 1550 3584 1831 3584 
Q 2591 3584 2966 3190 
Q 3341 2797 3341 1997 
z
" transform="scale(0.015625)"/>
       <path id="DejaVuSans-6d" d="M 3328 2828 
Q 3544 3216 3844 3400 
Q 4144 3584 4550 3584 
Q 5097 3584 5394 3201 
Q 5691 2819 5691 2113 
L 5691 0 
L 5113 0 
L 5113 2094 
Q 5113 2597 4934 2840 
Q 4756 3084 4391 3084 
Q 3944 3084 3684 2787 
Q 3425 2491 3425 1978 
L 3425 0 
L 2847 0 
L 2847 2094 
Q 2847 2600 2669 2842 
Q 2491 3084 2119 3084 
Q 1678 3084 1418 2786 
Q 1159 2488 1159 1978 
L 1159 0 
L 581 0 
L 581 3500 
L 1159 3500 
L 1159 2956 
Q 1356 3278 1631 3431 
Q 1906 3584 2284 3584 
Q 2666 3584 2933 3390 
Q 3200 3197 3328 2828 
z
" transform="scale(0.015625)"/>
       <path id="DejaVuSans-70" d="M 1159 525 
L 1159 -1331 
L 581 -1331 
L 581 3500 
L 1159 3500 
L 1159 2969 
Q 1341 3281 1617 3432 
Q 1894 3584 2278 3584 
Q 2916 3584 3314 3078 
Q 3713 2572 3713 1747 
Q 3713 922 3314 415 
Q 2916 -91 2278 -91 
Q 1894 -91 1617 61 
Q 1341 213 1159 525 
z
M 3116 1747 
Q 3116 2381 2855 2742 
Q 2594 3103 2138 3103 
Q 1681 3103 1420 2742 
Q 1159 2381 1159 1747 
Q 1159 1113 1420 752 
Q 1681 391 2138 391 
Q 2594 391 2855 752 
Q 3116 1113 3116 1747 
z
" transform="scale(0.015625)"/>
       <path id="DejaVuSans-64" d="M 2906 2969 
L 2906 4863 
L 3481 4863 
L 3481 0 
L 2906 0 
L 2906 525 
Q 2725 213 2448 61 
Q 2172 -91 1784 -91 
Q 1150 -91 751 415 
Q 353 922 353 1747 
Q 353 2572 751 3078 
Q 1150 3584 1784 3584 
Q 2172 3584 2448 3432 
Q 2725 3281 2906 2969 
z
M 947 1747 
Q 947 1113 1208 752 
Q 1469 391 1925 391 
Q 2381 391 2643 752 
Q 2906 1113 2906 1747 
Q 2906 2381 2643 2742 
Q 2381 3103 1925 3103 
Q 1469 3103 1208 2742 
Q 947 2381 947 1747 
z
" transform="scale(0.015625)"/>
       <path id="DejaVuSans-67" d="M 2906 1791 
Q 2906 2416 2648 2759 
Q 2391 3103 1925 3103 
Q 1463 3103 1205 2759 
Q 947 2416 947 1791 
Q 947 1169 1205 825 
Q 1463 481 1925 481 
Q 2391 481 2648 825 
Q 2906 1169 2906 1791 
z
M 3481 434 
Q 3481 -459 3084 -895 
Q 2688 -1331 1869 -1331 
Q 1566 -1331 1297 -1286 
Q 1028 -1241 775 -1147 
L 775 -588 
Q 1028 -725 1275 -790 
Q 1522 -856 1778 -856 
Q 2344 -856 2625 -561 
Q 2906 -266 2906 331 
L 2906 616 
Q 2728 306 2450 153 
Q 2172 0 1784 0 
Q 1141 0 747 490 
Q 353 981 353 1791 
Q 353 2603 747 3093 
Q 1141 3584 1784 3584 
Q 2172 3584 2450 3431 
Q 2728 3278 2906 2969 
L 2906 3500 
L 3481 3500 
L 3481 434 
z
" transform="scale(0.015625)"/>
       <path id="DejaVuSans-6e" d="M 3513 2113 
L 3513 0 
L 2938 0 
L 2938 2094 
Q 2938 2591 2744 2837 
Q 2550 3084 2163 3084 
Q 1697 3084 1428 2787 
Q 1159 2491 1159 1978 
L 1159 0 
L 581 0 
L 581 3500 
L 1159 3500 
L 1159 2956 
Q 1366 3272 1645 3428 
Q 1925 3584 2291 3584 
Q 2894 3584 3203 3211 
Q 3513 2838 3513 2113 
z
" transform="scale(0.015625)"/>
       <path id="DejaVuSans-3b" d="M 750 3309 
L 1409 3309 
L 1409 2516 
L 750 2516 
L 750 3309 
z
M 750 794 
L 1409 794 
L 1409 256 
L 897 -744 
L 494 -744 
L 750 256 
L 750 794 
z
" transform="scale(0.015625)"/>
       <path id="DejaVuSans-63" d="M 3122 3366 
L 3122 2828 
Q 2878 2963 2633 3030 
Q 2388 3097 2138 3097 
Q 1578 3097 1268 2742 
Q 959 2388 959 1747 
Q 959 1106 1268 751 
Q 1578 397 2138 397 
Q 2388 397 2633 464 
Q 2878 531 3122 666 
L 3122 134 
Q 2881 22 2623 -34 
Q 2366 -91 2075 -91 
Q 1284 -91 818 406 
Q 353 903 353 1747 
Q 353 2603 823 3093 
Q 1294 3584 2113 3584 
Q 2378 3584 2631 3529 
Q 2884 3475 3122 3366 
z
" transform="scale(0.015625)"/>
       <path id="DejaVuSans-72" d="M 2631 2963 
Q 2534 3019 2420 3045 
Q 2306 3072 2169 3072 
Q 1681 3072 1420 2755 
Q 1159 2438 1159 1844 
L 1159 0 
L 581 0 
L 581 3500 
L 1159 3500 
L 1159 2956 
Q 1341 3275 1631 3429 
Q 1922 3584 2338 3584 
Q 2397 3584 2469 3576 
Q 2541 3569 2628 3553 
L 2631 2963 
z
" transform="scale(0.015625)"/>
       <path id="DejaVuSans-74" d="M 1172 4494 
L 1172 3500 
L 2356 3500 
L 2356 3053 
L 1172 3053 
L 1172 1153 
Q 1172 725 1289 603 
Q 1406 481 1766 481 
L 2356 481 
L 2356 0 
L 1766 0 
Q 1100 0 847 248 
Q 594 497 594 1153 
L 594 3053 
L 172 3053 
L 172 3500 
L 594 3500 
L 594 4494 
L 1172 4494 
z
" transform="scale(0.015625)"/>
       <path id="DejaVuSans-69" d="M 603 3500 
L 1178 3500 
L 1178 0 
L 603 0 
L 603 3500 
z
M 603 4863 
L 1178 4863 
L 1178 4134 
L 603 4134 
L 603 4863 
z
" transform="scale(0.015625)"/>
       <path id="DejaVuSans-6f" d="M 1959 3097 
Q 1497 3097 1228 2736 
Q 959 2375 959 1747 
Q 959 1119 1226 758 
Q 1494 397 1959 397 
Q 2419 397 2687 759 
Q 2956 1122 2956 1747 
Q 2956 2369 2687 2733 
Q 2419 3097 1959 3097 
z
M 1959 3584 
Q 2709 3584 3137 3096 
Q 3566 2609 3566 1747 
Q 3566 888 3137 398 
Q 2709 -91 1959 -91 
Q 1206 -91 779 398 
Q 353 888 353 1747 
Q 353 2609 779 3096 
Q 1206 3584 1959 3584 
z
" transform="scale(0.015625)"/>
      </defs>
      <use xlink:href="#DejaVuSans-43"/>
      <use xlink:href="#DejaVuSans-65" x="69.824219"/>
      <use xlink:href="#DejaVuSans-6c" x="131.347656"/>
      <use xlink:href="#DejaVuSans-6c" x="159.130859"/>
      <use xlink:href="#DejaVuSans-73" x="186.914062"/>
      <use xlink:href="#DejaVuSans-20" x="239.013672"/>
      <use xlink:href="#DejaVuSans-73" x="270.800781"/>
      <use xlink:href="#DejaVuSans-75" x="322.900391"/>
      <use xlink:href="#DejaVuSans-62" x="386.279297"/>
      <use xlink:href="#DejaVuSans-73" x="449.755859"/>
      <use xlink:href="#DejaVuSans-61" x="501.855469"/>
      <use xlink:href="#DejaVuSans-6d" x="563.134766"/>
      <use xlink:href="#DejaVuSans-70" x="660.546875"/>
      <use xlink:href="#DejaVuSans-6c" x="724.023438"/>
      <use xlink:href="#DejaVuSans-65" x="751.806641"/>
      <use xlink:href="#DejaVuSans-64" x="813.330078"/>
      <use xlink:href="#DejaVuSans-20" x="876.806641"/>
      <use xlink:href="#DejaVuSans-20" x="908.59375"/>
      <use xlink:href="#DejaVuSans-28" x="940.380859"/>
      <use xlink:href="#DejaVuSans-61" x="979.394531"/>
      <use xlink:href="#DejaVuSans-6c" x="1040.673828"/>
      <use xlink:href="#DejaVuSans-6c" x="1068.457031"/>
      <use xlink:href="#DejaVuSans-20" x="1096.240234"/>
      <use xlink:href="#DejaVuSans-32" x="1128.027344"/>
      <use xlink:href="#DejaVuSans-30" x="1191.650391"/>
      <use xlink:href="#DejaVuSans-30" x="1255.273438"/>
      <use xlink:href="#DejaVuSans-30" x="1318.896484"/>
      <use xlink:href="#DejaVuSans-20" x="1382.519531"/>
      <use xlink:href="#DejaVuSans-67" x="1414.306641"/>
      <use xlink:href="#DejaVuSans-65" x="1477.783203"/>
      <use xlink:href="#DejaVuSans-6e" x="1539.306641"/>
      <use xlink:href="#DejaVuSans-65" x="1602.685547"/>
      <use xlink:href="#DejaVuSans-73" x="1664.208984"/>
      <use xlink:href="#DejaVuSans-3b" x="1716.308594"/>
      <use xlink:href="#DejaVuSans-20" x="1750"/>
      <use xlink:href="#DejaVuSans-20" x="1781.787109"/>
      <use xlink:href="#DejaVuSans-67" x="1813.574219"/>
      <use xlink:href="#DejaVuSans-3a" x="1877.050781"/>
      <use xlink:href="#DejaVuSans-63" x="1910.742188"/>
      <use xlink:href="#DejaVuSans-20" x="1965.722656"/>
      <use xlink:href="#DejaVuSans-72" x="1997.509766"/>
      <use xlink:href="#DejaVuSans-61" x="2038.623047"/>
      <use xlink:href="#DejaVuSans-74" x="2099.902344"/>
      <use xlink:href="#DejaVuSans-69" x="2139.111328"/>
      <use xlink:href="#DejaVuSans-6f" x="2166.894531"/>
      <use xlink:href="#DejaVuSans-29" x="2228.076172"/>
     </g>
    </g>
   </g>
   <g id="matplotlib.axis_2">
    <g id="ytick_1">
     <g id="line2d_6">
      <path d="M 42.53875 321.64 
L 420.898461 321.64 
" clip-path="url(#pd5373ff0a0)" style="fill: none; stroke-dasharray: 2.96,1.28; stroke-dashoffset: 0; stroke: #b0b0b0; stroke-opacity: 0.25; stroke-width: 0.8"/>
     </g>
     <g id="line2d_7">
      <defs>
       <path id="m528c80a1c6" d="M 0 0 
L -3.5 0 
" style="stroke: #000000; stroke-width: 0.8"/>
      </defs>
      <g>
       <use xlink:href="#m528c80a1c6" x="42.53875" y="321.64" style="stroke: #000000; stroke-width: 0.8"/>
      </g>
     </g>
     <g id="text_7">
      <!-- 0 -->
      <g transform="translate(29.17625 325.439219) scale(0.1 -0.1)">
       <use xlink:href="#DejaVuSans-30"/>
      </g>
     </g>
    </g>
    <g id="ytick_2">
     <g id="line2d_8">
      <path d="M 42.53875 292.17767 
L 420.898461 292.17767 
" clip-path="url(#pd5373ff0a0)" style="fill: none; stroke-dasharray: 2.96,1.28; stroke-dashoffset: 0; stroke: #b0b0b0; stroke-opacity: 0.25; stroke-width: 0.8"/>
     </g>
     <g id="line2d_9">
      <g>
       <use xlink:href="#m528c80a1c6" x="42.53875" y="292.17767" style="stroke: #000000; stroke-width: 0.8"/>
      </g>
     </g>
     <g id="text_8">
      <!-- 5 -->
      <g transform="translate(29.17625 295.976889) scale(0.1 -0.1)">
       <use xlink:href="#DejaVuSans-35"/>
      </g>
     </g>
    </g>
    <g id="ytick_3">
     <g id="line2d_10">
      <path d="M 42.53875 262.71534 
L 420.898461 262.71534 
" clip-path="url(#pd5373ff0a0)" style="fill: none; stroke-dasharray: 2.96,1.28; stroke-dashoffset: 0; stroke: #b0b0b0; stroke-opacity: 0.25; stroke-width: 0.8"/>
     </g>
     <g id="line2d_11">
      <g>
       <use xlink:href="#m528c80a1c6" x="42.53875" y="262.71534" style="stroke: #000000; stroke-width: 0.8"/>
      </g>
     </g>
     <g id="text_9">
      <!-- 10 -->
      <g transform="translate(22.81375 266.514559) scale(0.1 -0.1)">
       <use xlink:href="#DejaVuSans-31"/>
       <use xlink:href="#DejaVuSans-30" x="63.623047"/>
      </g>
     </g>
    </g>
    <g id="ytick_4">
     <g id="line2d_12">
      <path d="M 42.53875 233.253011 
L 420.898461 233.253011 
" clip-path="url(#pd5373ff0a0)" style="fill: none; stroke-dasharray: 2.96,1.28; stroke-dashoffset: 0; stroke: #b0b0b0; stroke-opacity: 0.25; stroke-width: 0.8"/>
     </g>
     <g id="line2d_13">
      <g>
       <use xlink:href="#m528c80a1c6" x="42.53875" y="233.253011" style="stroke: #000000; stroke-width: 0.8"/>
      </g>
     </g>
     <g id="text_10">
      <!-- 15 -->
      <g transform="translate(22.81375 237.052229) scale(0.1 -0.1)">
       <use xlink:href="#DejaVuSans-31"/>
       <use xlink:href="#DejaVuSans-35" x="63.623047"/>
      </g>
     </g>
    </g>
    <g id="ytick_5">
     <g id="line2d_14">
      <path d="M 42.53875 203.790681 
L 420.898461 203.790681 
" clip-path="url(#pd5373ff0a0)" style="fill: none; stroke-dasharray: 2.96,1.28; stroke-dashoffset: 0; stroke: #b0b0b0; stroke-opacity: 0.25; stroke-width: 0.8"/>
     </g>
     <g id="line2d_15">
      <g>
       <use xlink:href="#m528c80a1c6" x="42.53875" y="203.790681" style="stroke: #000000; stroke-width: 0.8"/>
      </g>
     </g>
     <g id="text_11">
      <!-- 20 -->
      <g transform="translate(22.81375 207.5899) scale(0.1 -0.1)">
       <use xlink:href="#DejaVuSans-32"/>
       <use xlink:href="#DejaVuSans-30" x="63.623047"/>
      </g>
     </g>
    </g>
    <g id="ytick_6">
     <g id="line2d_16">
      <path d="M 42.53875 174.328351 
L 420.898461 174.328351 
" clip-path="url(#pd5373ff0a0)" style="fill: none; stroke-dasharray: 2.96,1.28; stroke-dashoffset: 0; stroke: #b0b0b0; stroke-opacity: 0.25; stroke-width: 0.8"/>
     </g>
     <g id="line2d_17">
      <g>
       <use xlink:href="#m528c80a1c6" x="42.53875" y="174.328351" style="stroke: #000000; stroke-width: 0.8"/>
      </g>
     </g>
     <g id="text_12">
      <!-- 25 -->
      <g transform="translate(22.81375 178.12757) scale(0.1 -0.1)">
       <use xlink:href="#DejaVuSans-32"/>
       <use xlink:href="#DejaVuSans-35" x="63.623047"/>
      </g>
     </g>
    </g>
    <g id="ytick_7">
     <g id="line2d_18">
      <path d="M 42.53875 144.866021 
L 420.898461 144.866021 
" clip-path="url(#pd5373ff0a0)" style="fill: none; stroke-dasharray: 2.96,1.28; stroke-dashoffset: 0; stroke: #b0b0b0; stroke-opacity: 0.25; stroke-width: 0.8"/>
     </g>
     <g id="line2d_19">
      <g>
       <use xlink:href="#m528c80a1c6" x="42.53875" y="144.866021" style="stroke: #000000; stroke-width: 0.8"/>
      </g>
     </g>
     <g id="text_13">
      <!-- 30 -->
      <g transform="translate(22.81375 148.66524) scale(0.1 -0.1)">
       <use xlink:href="#DejaVuSans-33"/>
       <use xlink:href="#DejaVuSans-30" x="63.623047"/>
      </g>
     </g>
    </g>
    <g id="ytick_8">
     <g id="line2d_20">
      <path d="M 42.53875 115.403691 
L 420.898461 115.403691 
" clip-path="url(#pd5373ff0a0)" style="fill: none; stroke-dasharray: 2.96,1.28; stroke-dashoffset: 0; stroke: #b0b0b0; stroke-opacity: 0.25; stroke-width: 0.8"/>
     </g>
     <g id="line2d_21">
      <g>
       <use xlink:href="#m528c80a1c6" x="42.53875" y="115.403691" style="stroke: #000000; stroke-width: 0.8"/>
      </g>
     </g>
     <g id="text_14">
      <!-- 35 -->
      <g transform="translate(22.81375 119.20291) scale(0.1 -0.1)">
       <use xlink:href="#DejaVuSans-33"/>
       <use xlink:href="#DejaVuSans-35" x="63.623047"/>
      </g>
     </g>
    </g>
    <g id="ytick_9">
     <g id="line2d_22">
      <path d="M 42.53875 85.941362 
L 420.898461 85.941362 
" clip-path="url(#pd5373ff0a0)" style="fill: none; stroke-dasharray: 2.96,1.28; stroke-dashoffset: 0; stroke: #b0b0b0; stroke-opacity: 0.25; stroke-width: 0.8"/>
     </g>
     <g id="line2d_23">
      <g>
       <use xlink:href="#m528c80a1c6" x="42.53875" y="85.941362" style="stroke: #000000; stroke-width: 0.8"/>
      </g>
     </g>
     <g id="text_15">
      <!-- 40 -->
      <g transform="translate(22.81375 89.74058) scale(0.1 -0.1)">
       <use xlink:href="#DejaVuSans-34"/>
       <use xlink:href="#DejaVuSans-30" x="63.623047"/>
      </g>
     </g>
    </g>
    <g id="text_16">
     <!-- GMP-Cor  (raw) -->
     <g transform="translate(16.318125 239.326875) rotate(-90) scale(0.12 -0.12)">
      <defs>
       <path id="DejaVuSans-47" d="M 3809 666 
L 3809 1919 
L 2778 1919 
L 2778 2438 
L 4434 2438 
L 4434 434 
Q 4069 175 3628 42 
Q 3188 -91 2688 -91 
Q 1594 -91 976 548 
Q 359 1188 359 2328 
Q 359 3472 976 4111 
Q 1594 4750 2688 4750 
Q 3144 4750 3555 4637 
Q 3966 4525 4313 4306 
L 4313 3634 
Q 3963 3931 3569 4081 
Q 3175 4231 2741 4231 
Q 1884 4231 1454 3753 
Q 1025 3275 1025 2328 
Q 1025 1384 1454 906 
Q 1884 428 2741 428 
Q 3075 428 3337 486 
Q 3600 544 3809 666 
z
" transform="scale(0.015625)"/>
       <path id="DejaVuSans-4d" d="M 628 4666 
L 1569 4666 
L 2759 1491 
L 3956 4666 
L 4897 4666 
L 4897 0 
L 4281 0 
L 4281 4097 
L 3078 897 
L 2444 897 
L 1241 4097 
L 1241 0 
L 628 0 
L 628 4666 
z
" transform="scale(0.015625)"/>
       <path id="DejaVuSans-50" d="M 1259 4147 
L 1259 2394 
L 2053 2394 
Q 2494 2394 2734 2622 
Q 2975 2850 2975 3272 
Q 2975 3691 2734 3919 
Q 2494 4147 2053 4147 
L 1259 4147 
z
M 628 4666 
L 2053 4666 
Q 2838 4666 3239 4311 
Q 3641 3956 3641 3272 
Q 3641 2581 3239 2228 
Q 2838 1875 2053 1875 
L 1259 1875 
L 1259 0 
L 628 0 
L 628 4666 
z
" transform="scale(0.015625)"/>
       <path id="DejaVuSans-2d" d="M 313 2009 
L 1997 2009 
L 1997 1497 
L 313 1497 
L 313 2009 
z
" transform="scale(0.015625)"/>
       <path id="DejaVuSans-77" d="M 269 3500 
L 844 3500 
L 1563 769 
L 2278 3500 
L 2956 3500 
L 3675 769 
L 4391 3500 
L 4966 3500 
L 4050 0 
L 3372 0 
L 2619 2869 
L 1863 0 
L 1184 0 
L 269 3500 
z
" transform="scale(0.015625)"/>
      </defs>
      <use xlink:href="#DejaVuSans-47"/>
      <use xlink:href="#DejaVuSans-4d" x="77.490234"/>
      <use xlink:href="#DejaVuSans-50" x="163.769531"/>
      <use xlink:href="#DejaVuSans-2d" x="221.822266"/>
      <use xlink:href="#DejaVuSans-43" x="257.90625"/>
      <use xlink:href="#DejaVuSans-6f" x="327.730469"/>
      <use xlink:href="#DejaVuSans-72" x="388.912109"/>
      <use xlink:href="#DejaVuSans-20" x="430.025391"/>
      <use xlink:href="#DejaVuSans-20" x="461.8125"/>
      <use xlink:href="#DejaVuSans-28" x="493.599609"/>
      <use xlink:href="#DejaVuSans-72" x="532.613281"/>
      <use xlink:href="#DejaVuSans-61" x="573.726562"/>
      <use xlink:href="#DejaVuSans-77" x="635.005859"/>
      <use xlink:href="#DejaVuSans-29" x="716.792969"/>
     </g>
    </g>
   </g>
   <g id="line2d_24">
    <defs>
     <path id="mf8ae2642ac" d="M 0 2 
C 0.530406 2 1.03916 1.789267 1.414214 1.414214 
C 1.789267 1.03916 2 0.530406 2 0 
C 2 -0.530406 1.789267 -1.03916 1.414214 -1.414214 
C 1.03916 -1.789267 0.530406 -2 0 -2 
C -0.530406 -2 -1.03916 -1.789267 -1.414214 -1.414214 
C -1.789267 -1.03916 -2 -0.530406 -2 0 
C -2 0.530406 -1.789267 1.03916 -1.414214 1.414214 
C -1.03916 1.789267 -0.530406 2 0 2 
z
" style="stroke: #de2d26; stroke-opacity: 0.22"/>
    </defs>
    <g clip-path="url(#pd5373ff0a0)">
     <use xlink:href="#mf8ae2642ac" x="59.736919" y="182.094773" style="fill: #de2d26; fill-opacity: 0.22; stroke: #de2d26; stroke-opacity: 0.22"/>
    </g>
   </g>
   <g id="line2d_25">
    <g clip-path="url(#pd5373ff0a0)">
     <use xlink:href="#mf8ae2642ac" x="59.736919" y="79.581456" style="fill: #de2d26; fill-opacity: 0.22; stroke: #de2d26; stroke-opacity: 0.22"/>
    </g>
   </g>
   <g id="line2d_26">
    <g clip-path="url(#pd5373ff0a0)">
     <use xlink:href="#mf8ae2642ac" x="59.736919" y="203.880417" style="fill: #de2d26; fill-opacity: 0.22; stroke: #de2d26; stroke-opacity: 0.22"/>
    </g>
   </g>
   <g id="line2d_27">
    <g clip-path="url(#pd5373ff0a0)">
     <use xlink:href="#mf8ae2642ac" x="59.736919" y="258.731937" style="fill: #de2d26; fill-opacity: 0.22; stroke: #de2d26; stroke-opacity: 0.22"/>
    </g>
   </g>
   <g id="line2d_28">
    <g clip-path="url(#pd5373ff0a0)">
     <use xlink:href="#mf8ae2642ac" x="59.736919" y="159.593722" style="fill: #de2d26; fill-opacity: 0.22; stroke: #de2d26; stroke-opacity: 0.22"/>
    </g>
   </g>
   <g id="line2d_29">
    <g clip-path="url(#pd5373ff0a0)">
     <use xlink:href="#mf8ae2642ac" x="145.727762" y="106.708697" style="fill: #de2d26; fill-opacity: 0.22; stroke: #de2d26; stroke-opacity: 0.22"/>
    </g>
   </g>
   <g id="line2d_30">
    <g clip-path="url(#pd5373ff0a0)">
     <use xlink:href="#mf8ae2642ac" x="145.727762" y="154.34981" style="fill: #de2d26; fill-opacity: 0.22; stroke: #de2d26; stroke-opacity: 0.22"/>
    </g>
   </g>
   <g id="line2d_31">
    <g clip-path="url(#pd5373ff0a0)">
     <use xlink:href="#mf8ae2642ac" x="145.727762" y="214.99974" style="fill: #de2d26; fill-opacity: 0.22; stroke: #de2d26; stroke-opacity: 0.22"/>
    </g>
   </g>
   <g id="line2d_32">
    <g clip-path="url(#pd5373ff0a0)">
     <use xlink:href="#mf8ae2642ac" x="145.727762" y="208.436392" style="fill: #de2d26; fill-opacity: 0.22; stroke: #de2d26; stroke-opacity: 0.22"/>
    </g>
   </g>
   <g id="line2d_33">
    <g clip-path="url(#pd5373ff0a0)">
     <use xlink:href="#mf8ae2642ac" x="145.727762" y="169.174525" style="fill: #de2d26; fill-opacity: 0.22; stroke: #de2d26; stroke-opacity: 0.22"/>
    </g>
   </g>
   <g id="line2d_34">
    <g clip-path="url(#pd5373ff0a0)">
     <use xlink:href="#mf8ae2642ac" x="231.718605" y="77.854893" style="fill: #de2d26; fill-opacity: 0.22; stroke: #de2d26; stroke-opacity: 0.22"/>
    </g>
   </g>
   <g id="line2d_35">
    <g clip-path="url(#pd5373ff0a0)">
     <use xlink:href="#mf8ae2642ac" x="231.718605" y="179.421847" style="fill: #de2d26; fill-opacity: 0.22; stroke: #de2d26; stroke-opacity: 0.22"/>
    </g>
   </g>
   <g id="line2d_36">
    <g clip-path="url(#pd5373ff0a0)">
     <use xlink:href="#mf8ae2642ac" x="231.718605" y="146.210576" style="fill: #de2d26; fill-opacity: 0.22; stroke: #de2d26; stroke-opacity: 0.22"/>
    </g>
   </g>
   <g id="line2d_37">
    <g clip-path="url(#pd5373ff0a0)">
     <use xlink:href="#mf8ae2642ac" x="231.718605" y="140.37178" style="fill: #de2d26; fill-opacity: 0.22; stroke: #de2d26; stroke-opacity: 0.22"/>
    </g>
   </g>
   <g id="line2d_38">
    <g clip-path="url(#pd5373ff0a0)">
     <use xlink:href="#mf8ae2642ac" x="231.718605" y="132.330123" style="fill: #de2d26; fill-opacity: 0.22; stroke: #de2d26; stroke-opacity: 0.22"/>
    </g>
   </g>
   <g id="line2d_39">
    <g clip-path="url(#pd5373ff0a0)">
     <use xlink:href="#mf8ae2642ac" x="317.709449" y="143.849634" style="fill: #de2d26; fill-opacity: 0.22; stroke: #de2d26; stroke-opacity: 0.22"/>
    </g>
   </g>
   <g id="line2d_40">
    <g clip-path="url(#pd5373ff0a0)">
     <use xlink:href="#mf8ae2642ac" x="317.709449" y="75.482473" style="fill: #de2d26; fill-opacity: 0.22; stroke: #de2d26; stroke-opacity: 0.22"/>
    </g>
   </g>
   <g id="line2d_41">
    <g clip-path="url(#pd5373ff0a0)">
     <use xlink:href="#mf8ae2642ac" x="317.709449" y="166.495224" style="fill: #de2d26; fill-opacity: 0.22; stroke: #de2d26; stroke-opacity: 0.22"/>
    </g>
   </g>
   <g id="line2d_42">
    <g clip-path="url(#pd5373ff0a0)">
     <use xlink:href="#mf8ae2642ac" x="317.709449" y="95.786775" style="fill: #de2d26; fill-opacity: 0.22; stroke: #de2d26; stroke-opacity: 0.22"/>
    </g>
   </g>
   <g id="line2d_43">
    <g clip-path="url(#pd5373ff0a0)">
     <use xlink:href="#mf8ae2642ac" x="317.709449" y="108.70082" style="fill: #de2d26; fill-opacity: 0.22; stroke: #de2d26; stroke-opacity: 0.22"/>
    </g>
   </g>
   <g id="line2d_44">
    <g clip-path="url(#pd5373ff0a0)">
     <use xlink:href="#mf8ae2642ac" x="403.700292" y="82.265112" style="fill: #de2d26; fill-opacity: 0.22; stroke: #de2d26; stroke-opacity: 0.22"/>
    </g>
   </g>
   <g id="line2d_45">
    <g clip-path="url(#pd5373ff0a0)">
     <use xlink:href="#mf8ae2642ac" x="403.700292" y="96.325981" style="fill: #de2d26; fill-opacity: 0.22; stroke: #de2d26; stroke-opacity: 0.22"/>
    </g>
   </g>
   <g id="line2d_46">
    <g clip-path="url(#pd5373ff0a0)">
     <use xlink:href="#mf8ae2642ac" x="403.700292" y="94.904803" style="fill: #de2d26; fill-opacity: 0.22; stroke: #de2d26; stroke-opacity: 0.22"/>
    </g>
   </g>
   <g id="line2d_47">
    <g clip-path="url(#pd5373ff0a0)">
     <use xlink:href="#mf8ae2642ac" x="403.700292" y="106.155971" style="fill: #de2d26; fill-opacity: 0.22; stroke: #de2d26; stroke-opacity: 0.22"/>
    </g>
   </g>
   <g id="line2d_48">
    <g clip-path="url(#pd5373ff0a0)">
     <use xlink:href="#mf8ae2642ac" x="403.700292" y="82.426089" style="fill: #de2d26; fill-opacity: 0.22; stroke: #de2d26; stroke-opacity: 0.22"/>
    </g>
   </g>
   <g id="patch_3">
    <path d="M 42.53875 321.64 
L 42.53875 66.32 
" style="fill: none; stroke: #000000; stroke-width: 0.8; stroke-linejoin: miter; stroke-linecap: square"/>
   </g>
   <g id="patch_4">
    <path d="M 42.53875 321.64 
L 420.898461 321.64 
" style="fill: none; stroke: #000000; stroke-width: 0.8; stroke-linejoin: miter; stroke-linecap: square"/>
   </g>
   <g id="LineCollection_1">
    <path d="M 59.736919 242.392245 
L 59.736919 111.160677 
" clip-path="url(#pd5373ff0a0)" style="fill: none; stroke: #67000d; stroke-width: 2"/>
    <path d="M 145.727762 214.753826 
L 145.727762 126.713839 
" clip-path="url(#pd5373ff0a0)" style="fill: none; stroke: #67000d; stroke-width: 2"/>
    <path d="M 231.718605 171.981014 
L 231.718605 98.494674 
" clip-path="url(#pd5373ff0a0)" style="fill: none; stroke: #67000d; stroke-width: 2"/>
    <path d="M 317.709449 154.831221 
L 317.709449 81.294749 
" clip-path="url(#pd5373ff0a0)" style="fill: none; stroke: #67000d; stroke-width: 2"/>
    <path d="M 403.700292 102.578118 
L 403.700292 82.253065 
" clip-path="url(#pd5373ff0a0)" style="fill: none; stroke: #67000d; stroke-width: 2"/>
   </g>
   <g id="line2d_49">
    <defs>
     <path id="m1e8e9ed1a6" d="M 4 0 
L -4 -0 
" style="stroke: #67000d"/>
    </defs>
    <g clip-path="url(#pd5373ff0a0)">
     <use xlink:href="#m1e8e9ed1a6" x="59.736919" y="242.392245" style="fill: #67000d; stroke: #67000d"/>
     <use xlink:href="#m1e8e9ed1a6" x="145.727762" y="214.753826" style="fill: #67000d; stroke: #67000d"/>
     <use xlink:href="#m1e8e9ed1a6" x="231.718605" y="171.981014" style="fill: #67000d; stroke: #67000d"/>
     <use xlink:href="#m1e8e9ed1a6" x="317.709449" y="154.831221" style="fill: #67000d; stroke: #67000d"/>
     <use xlink:href="#m1e8e9ed1a6" x="403.700292" y="102.578118" style="fill: #67000d; stroke: #67000d"/>
    </g>
   </g>
   <g id="line2d_50">
    <g clip-path="url(#pd5373ff0a0)">
     <use xlink:href="#m1e8e9ed1a6" x="59.736919" y="111.160677" style="fill: #67000d; stroke: #67000d"/>
     <use xlink:href="#m1e8e9ed1a6" x="145.727762" y="126.713839" style="fill: #67000d; stroke: #67000d"/>
     <use xlink:href="#m1e8e9ed1a6" x="231.718605" y="98.494674" style="fill: #67000d; stroke: #67000d"/>
     <use xlink:href="#m1e8e9ed1a6" x="317.709449" y="81.294749" style="fill: #67000d; stroke: #67000d"/>
     <use xlink:href="#m1e8e9ed1a6" x="403.700292" y="82.253065" style="fill: #67000d; stroke: #67000d"/>
    </g>
   </g>
   <g id="text_17">
    <!-- 24.6 -->
    <g style="fill: #67000d" transform="translate(49.717387 102.412226) scale(0.09 -0.09)">
     <use xlink:href="#DejaVuSans-32"/>
     <use xlink:href="#DejaVuSans-34" x="63.623047"/>
     <use xlink:href="#DejaVuSans-2e" x="127.246094"/>
     <use xlink:href="#DejaVuSans-36" x="159.033203"/>
    </g>
   </g>
   <g id="text_18">
    <!-- 25.6 -->
    <g style="fill: #67000d" transform="translate(135.708231 117.965388) scale(0.09 -0.09)">
     <use xlink:href="#DejaVuSans-32"/>
     <use xlink:href="#DejaVuSans-35" x="63.623047"/>
     <use xlink:href="#DejaVuSans-2e" x="127.246094"/>
     <use xlink:href="#DejaVuSans-36" x="159.033203"/>
    </g>
   </g>
   <g id="text_19">
    <!-- 31.6 -->
    <g style="fill: #67000d" transform="translate(221.699074 89.746223) scale(0.09 -0.09)">
     <use xlink:href="#DejaVuSans-33"/>
     <use xlink:href="#DejaVuSans-31" x="63.623047"/>
     <use xlink:href="#DejaVuSans-2e" x="127.246094"/>
     <use xlink:href="#DejaVuSans-36" x="159.033203"/>
    </g>
   </g>
   <g id="text_20">
    <!-- 34.5 -->
    <g style="fill: #67000d" transform="translate(307.689917 72.546298) scale(0.09 -0.09)">
     <use xlink:href="#DejaVuSans-33"/>
     <use xlink:href="#DejaVuSans-34" x="63.623047"/>
     <use xlink:href="#DejaVuSans-2e" x="127.246094"/>
     <use xlink:href="#DejaVuSans-35" x="159.033203"/>
    </g>
   </g>
   <g id="text_21">
    <!-- 38.9 -->
    <g style="fill: #67000d" transform="translate(393.680761 73.504614) scale(0.09 -0.09)">
     <defs>
      <path id="DejaVuSans-39" d="M 703 97 
L 703 672 
Q 941 559 1184 500 
Q 1428 441 1663 441 
Q 2288 441 2617 861 
Q 2947 1281 2994 2138 
Q 2813 1869 2534 1725 
Q 2256 1581 1919 1581 
Q 1219 1581 811 2004 
Q 403 2428 403 3163 
Q 403 3881 828 4315 
Q 1253 4750 1959 4750 
Q 2769 4750 3195 4129 
Q 3622 3509 3622 2328 
Q 3622 1225 3098 567 
Q 2575 -91 1691 -91 
Q 1453 -91 1209 -44 
Q 966 3 703 97 
z
M 1959 2075 
Q 2384 2075 2632 2365 
Q 2881 2656 2881 3163 
Q 2881 3666 2632 3958 
Q 2384 4250 1959 4250 
Q 1534 4250 1286 3958 
Q 1038 3666 1038 3163 
Q 1038 2656 1286 2365 
Q 1534 2075 1959 2075 
z
" transform="scale(0.015625)"/>
     </defs>
     <use xlink:href="#DejaVuSans-33"/>
     <use xlink:href="#DejaVuSans-38" x="63.623047"/>
     <use xlink:href="#DejaVuSans-2e" x="127.246094"/>
     <use xlink:href="#DejaVuSans-39" x="159.033203"/>
    </g>
   </g>
   <g id="text_22">
    <!-- A  Raw GMP-Cor vs cells  (all 2000 genes) -->
    <g transform="translate(42.53875 58.32) scale(0.12 -0.12)">
     <defs>
      <path id="DejaVuSans-Bold-41" d="M 3419 850 
L 1538 850 
L 1241 0 
L 31 0 
L 1759 4666 
L 3194 4666 
L 4922 0 
L 3713 0 
L 3419 850 
z
M 1838 1716 
L 3116 1716 
L 2478 3572 
L 1838 1716 
z
" transform="scale(0.015625)"/>
      <path id="DejaVuSans-Bold-20" transform="scale(0.015625)"/>
      <path id="DejaVuSans-Bold-52" d="M 2297 2597 
Q 2675 2597 2839 2737 
Q 3003 2878 3003 3200 
Q 3003 3519 2839 3656 
Q 2675 3794 2297 3794 
L 1791 3794 
L 1791 2597 
L 2297 2597 
z
M 1791 1766 
L 1791 0 
L 588 0 
L 588 4666 
L 2425 4666 
Q 3347 4666 3776 4356 
Q 4206 4047 4206 3378 
Q 4206 2916 3982 2619 
Q 3759 2322 3309 2181 
Q 3556 2125 3751 1926 
Q 3947 1728 4147 1325 
L 4800 0 
L 3519 0 
L 2950 1159 
Q 2778 1509 2601 1637 
Q 2425 1766 2131 1766 
L 1791 1766 
z
" transform="scale(0.015625)"/>
      <path id="DejaVuSans-Bold-61" d="M 2106 1575 
Q 1756 1575 1579 1456 
Q 1403 1338 1403 1106 
Q 1403 894 1545 773 
Q 1688 653 1941 653 
Q 2256 653 2472 879 
Q 2688 1106 2688 1447 
L 2688 1575 
L 2106 1575 
z
M 3816 1997 
L 3816 0 
L 2688 0 
L 2688 519 
Q 2463 200 2181 54 
Q 1900 -91 1497 -91 
Q 953 -91 614 226 
Q 275 544 275 1050 
Q 275 1666 698 1953 
Q 1122 2241 2028 2241 
L 2688 2241 
L 2688 2328 
Q 2688 2594 2478 2717 
Q 2269 2841 1825 2841 
Q 1466 2841 1156 2769 
Q 847 2697 581 2553 
L 581 3406 
Q 941 3494 1303 3539 
Q 1666 3584 2028 3584 
Q 2975 3584 3395 3211 
Q 3816 2838 3816 1997 
z
" transform="scale(0.015625)"/>
      <path id="DejaVuSans-Bold-77" d="M 225 3500 
L 1313 3500 
L 1900 1088 
L 2491 3500 
L 3425 3500 
L 4013 1113 
L 4603 3500 
L 5691 3500 
L 4769 0 
L 3547 0 
L 2956 2406 
L 2369 0 
L 1147 0 
L 225 3500 
z
" transform="scale(0.015625)"/>
      <path id="DejaVuSans-Bold-47" d="M 4781 347 
Q 4331 128 3847 18 
Q 3363 -91 2847 -91 
Q 1681 -91 1000 561 
Q 319 1213 319 2328 
Q 319 3456 1012 4103 
Q 1706 4750 2913 4750 
Q 3378 4750 3804 4662 
Q 4231 4575 4609 4403 
L 4609 3438 
Q 4219 3659 3833 3768 
Q 3447 3878 3059 3878 
Q 2341 3878 1952 3476 
Q 1563 3075 1563 2328 
Q 1563 1588 1938 1184 
Q 2313 781 3003 781 
Q 3191 781 3352 804 
Q 3513 828 3641 878 
L 3641 1784 
L 2906 1784 
L 2906 2591 
L 4781 2591 
L 4781 347 
z
" transform="scale(0.015625)"/>
      <path id="DejaVuSans-Bold-4d" d="M 588 4666 
L 2119 4666 
L 3181 2169 
L 4250 4666 
L 5778 4666 
L 5778 0 
L 4641 0 
L 4641 3413 
L 3566 897 
L 2803 897 
L 1728 3413 
L 1728 0 
L 588 0 
L 588 4666 
z
" transform="scale(0.015625)"/>
      <path id="DejaVuSans-Bold-50" d="M 588 4666 
L 2584 4666 
Q 3475 4666 3951 4270 
Q 4428 3875 4428 3144 
Q 4428 2409 3951 2014 
Q 3475 1619 2584 1619 
L 1791 1619 
L 1791 0 
L 588 0 
L 588 4666 
z
M 1791 3794 
L 1791 2491 
L 2456 2491 
Q 2806 2491 2997 2661 
Q 3188 2831 3188 3144 
Q 3188 3456 2997 3625 
Q 2806 3794 2456 3794 
L 1791 3794 
z
" transform="scale(0.015625)"/>
      <path id="DejaVuSans-Bold-2d" d="M 347 2297 
L 2309 2297 
L 2309 1388 
L 347 1388 
L 347 2297 
z
" transform="scale(0.015625)"/>
      <path id="DejaVuSans-Bold-43" d="M 4288 256 
Q 3956 84 3597 -3 
Q 3238 -91 2847 -91 
Q 1681 -91 1000 561 
Q 319 1213 319 2328 
Q 319 3447 1000 4098 
Q 1681 4750 2847 4750 
Q 3238 4750 3597 4662 
Q 3956 4575 4288 4403 
L 4288 3438 
Q 3953 3666 3628 3772 
Q 3303 3878 2944 3878 
Q 2300 3878 1931 3465 
Q 1563 3053 1563 2328 
Q 1563 1606 1931 1193 
Q 2300 781 2944 781 
Q 3303 781 3628 887 
Q 3953 994 4288 1222 
L 4288 256 
z
" transform="scale(0.015625)"/>
      <path id="DejaVuSans-Bold-6f" d="M 2203 2784 
Q 1831 2784 1636 2517 
Q 1441 2250 1441 1747 
Q 1441 1244 1636 976 
Q 1831 709 2203 709 
Q 2569 709 2762 976 
Q 2956 1244 2956 1747 
Q 2956 2250 2762 2517 
Q 2569 2784 2203 2784 
z
M 2203 3584 
Q 3106 3584 3614 3096 
Q 4122 2609 4122 1747 
Q 4122 884 3614 396 
Q 3106 -91 2203 -91 
Q 1297 -91 786 396 
Q 275 884 275 1747 
Q 275 2609 786 3096 
Q 1297 3584 2203 3584 
z
" transform="scale(0.015625)"/>
      <path id="DejaVuSans-Bold-72" d="M 3138 2547 
Q 2991 2616 2845 2648 
Q 2700 2681 2553 2681 
Q 2122 2681 1889 2404 
Q 1656 2128 1656 1613 
L 1656 0 
L 538 0 
L 538 3500 
L 1656 3500 
L 1656 2925 
Q 1872 3269 2151 3426 
Q 2431 3584 2822 3584 
Q 2878 3584 2943 3579 
Q 3009 3575 3134 3559 
L 3138 2547 
z
" transform="scale(0.015625)"/>
      <path id="DejaVuSans-Bold-76" d="M 97 3500 
L 1216 3500 
L 2088 1081 
L 2956 3500 
L 4078 3500 
L 2700 0 
L 1472 0 
L 97 3500 
z
" transform="scale(0.015625)"/>
      <path id="DejaVuSans-Bold-73" d="M 3272 3391 
L 3272 2541 
Q 2913 2691 2578 2766 
Q 2244 2841 1947 2841 
Q 1628 2841 1473 2761 
Q 1319 2681 1319 2516 
Q 1319 2381 1436 2309 
Q 1553 2238 1856 2203 
L 2053 2175 
Q 2913 2066 3209 1816 
Q 3506 1566 3506 1031 
Q 3506 472 3093 190 
Q 2681 -91 1863 -91 
Q 1516 -91 1145 -36 
Q 775 19 384 128 
L 384 978 
Q 719 816 1070 734 
Q 1422 653 1784 653 
Q 2113 653 2278 743 
Q 2444 834 2444 1013 
Q 2444 1163 2330 1236 
Q 2216 1309 1875 1350 
L 1678 1375 
Q 931 1469 631 1722 
Q 331 1975 331 2491 
Q 331 3047 712 3315 
Q 1094 3584 1881 3584 
Q 2191 3584 2531 3537 
Q 2872 3491 3272 3391 
z
" transform="scale(0.015625)"/>
      <path id="DejaVuSans-Bold-63" d="M 3366 3391 
L 3366 2478 
Q 3138 2634 2908 2709 
Q 2678 2784 2431 2784 
Q 1963 2784 1702 2511 
Q 1441 2238 1441 1747 
Q 1441 1256 1702 982 
Q 1963 709 2431 709 
Q 2694 709 2930 787 
Q 3166 866 3366 1019 
L 3366 103 
Q 3103 6 2833 -42 
Q 2563 -91 2291 -91 
Q 1344 -91 809 395 
Q 275 881 275 1747 
Q 275 2613 809 3098 
Q 1344 3584 2291 3584 
Q 2566 3584 2833 3536 
Q 3100 3488 3366 3391 
z
" transform="scale(0.015625)"/>
      <path id="DejaVuSans-Bold-65" d="M 4031 1759 
L 4031 1441 
L 1416 1441 
Q 1456 1047 1700 850 
Q 1944 653 2381 653 
Q 2734 653 3104 758 
Q 3475 863 3866 1075 
L 3866 213 
Q 3469 63 3072 -14 
Q 2675 -91 2278 -91 
Q 1328 -91 801 392 
Q 275 875 275 1747 
Q 275 2603 792 3093 
Q 1309 3584 2216 3584 
Q 3041 3584 3536 3087 
Q 4031 2591 4031 1759 
z
M 2881 2131 
Q 2881 2450 2695 2645 
Q 2509 2841 2209 2841 
Q 1884 2841 1681 2658 
Q 1478 2475 1428 2131 
L 2881 2131 
z
" transform="scale(0.015625)"/>
      <path id="DejaVuSans-Bold-6c" d="M 538 4863 
L 1656 4863 
L 1656 0 
L 538 0 
L 538 4863 
z
" transform="scale(0.015625)"/>
      <path id="DejaVuSans-Bold-28" d="M 2413 -844 
L 1484 -844 
Q 1006 -72 778 623 
Q 550 1319 550 2003 
Q 550 2688 779 3389 
Q 1009 4091 1484 4856 
L 2413 4856 
Q 2013 4116 1813 3408 
Q 1613 2700 1613 2009 
Q 1613 1319 1811 609 
Q 2009 -100 2413 -844 
z
" transform="scale(0.015625)"/>
      <path id="DejaVuSans-Bold-32" d="M 1844 884 
L 3897 884 
L 3897 0 
L 506 0 
L 506 884 
L 2209 2388 
Q 2438 2594 2547 2791 
Q 2656 2988 2656 3200 
Q 2656 3528 2436 3728 
Q 2216 3928 1850 3928 
Q 1569 3928 1234 3808 
Q 900 3688 519 3450 
L 519 4475 
Q 925 4609 1322 4679 
Q 1719 4750 2100 4750 
Q 2938 4750 3402 4381 
Q 3866 4013 3866 3353 
Q 3866 2972 3669 2642 
Q 3472 2313 2841 1759 
L 1844 884 
z
" transform="scale(0.015625)"/>
      <path id="DejaVuSans-Bold-30" d="M 2944 2338 
Q 2944 3213 2780 3570 
Q 2616 3928 2228 3928 
Q 1841 3928 1675 3570 
Q 1509 3213 1509 2338 
Q 1509 1453 1675 1090 
Q 1841 728 2228 728 
Q 2613 728 2778 1090 
Q 2944 1453 2944 2338 
z
M 4147 2328 
Q 4147 1169 3647 539 
Q 3147 -91 2228 -91 
Q 1306 -91 806 539 
Q 306 1169 306 2328 
Q 306 3491 806 4120 
Q 1306 4750 2228 4750 
Q 3147 4750 3647 4120 
Q 4147 3491 4147 2328 
z
" transform="scale(0.015625)"/>
      <path id="DejaVuSans-Bold-67" d="M 2919 594 
Q 2688 288 2409 144 
Q 2131 0 1766 0 
Q 1125 0 706 504 
Q 288 1009 288 1791 
Q 288 2575 706 3076 
Q 1125 3578 1766 3578 
Q 2131 3578 2409 3434 
Q 2688 3291 2919 2981 
L 2919 3500 
L 4044 3500 
L 4044 353 
Q 4044 -491 3511 -936 
Q 2978 -1381 1966 -1381 
Q 1638 -1381 1331 -1331 
Q 1025 -1281 716 -1178 
L 716 -306 
Q 1009 -475 1290 -558 
Q 1572 -641 1856 -641 
Q 2406 -641 2662 -400 
Q 2919 -159 2919 353 
L 2919 594 
z
M 2181 2772 
Q 1834 2772 1640 2515 
Q 1447 2259 1447 1791 
Q 1447 1309 1634 1061 
Q 1822 813 2181 813 
Q 2531 813 2725 1069 
Q 2919 1325 2919 1791 
Q 2919 2259 2725 2515 
Q 2531 2772 2181 2772 
z
" transform="scale(0.015625)"/>
      <path id="DejaVuSans-Bold-6e" d="M 4056 2131 
L 4056 0 
L 2931 0 
L 2931 347 
L 2931 1631 
Q 2931 2084 2911 2256 
Q 2891 2428 2841 2509 
Q 2775 2619 2662 2680 
Q 2550 2741 2406 2741 
Q 2056 2741 1856 2470 
Q 1656 2200 1656 1722 
L 1656 0 
L 538 0 
L 538 3500 
L 1656 3500 
L 1656 2988 
Q 1909 3294 2193 3439 
Q 2478 3584 2822 3584 
Q 3428 3584 3742 3212 
Q 4056 2841 4056 2131 
z
" transform="scale(0.015625)"/>
      <path id="DejaVuSans-Bold-29" d="M 513 -844 
Q 913 -100 1113 609 
Q 1313 1319 1313 2009 
Q 1313 2700 1113 3408 
Q 913 4116 513 4856 
L 1441 4856 
Q 1916 4091 2145 3389 
Q 2375 2688 2375 2003 
Q 2375 1319 2147 623 
Q 1919 -72 1441 -844 
L 513 -844 
z
" transform="scale(0.015625)"/>
     </defs>
     <use xlink:href="#DejaVuSans-Bold-41"/>
     <use xlink:href="#DejaVuSans-Bold-20" x="77.392578"/>
     <use xlink:href="#DejaVuSans-Bold-20" x="112.207031"/>
     <use xlink:href="#DejaVuSans-Bold-52" x="147.021484"/>
     <use xlink:href="#DejaVuSans-Bold-61" x="224.023438"/>
     <use xlink:href="#DejaVuSans-Bold-77" x="291.503906"/>
     <use xlink:href="#DejaVuSans-Bold-20" x="383.886719"/>
     <use xlink:href="#DejaVuSans-Bold-47" x="418.701172"/>
     <use xlink:href="#DejaVuSans-Bold-4d" x="500.78125"/>
     <use xlink:href="#DejaVuSans-Bold-50" x="600.292969"/>
     <use xlink:href="#DejaVuSans-Bold-2d" x="671.833984"/>
     <use xlink:href="#DejaVuSans-Bold-43" x="713.337891"/>
     <use xlink:href="#DejaVuSans-Bold-6f" x="786.726562"/>
     <use xlink:href="#DejaVuSans-Bold-72" x="855.427734"/>
     <use xlink:href="#DejaVuSans-Bold-20" x="904.744141"/>
     <use xlink:href="#DejaVuSans-Bold-76" x="939.558594"/>
     <use xlink:href="#DejaVuSans-Bold-73" x="1004.744141"/>
     <use xlink:href="#DejaVuSans-Bold-20" x="1064.265625"/>
     <use xlink:href="#DejaVuSans-Bold-63" x="1099.080078"/>
     <use xlink:href="#DejaVuSans-Bold-65" x="1158.357422"/>
     <use xlink:href="#DejaVuSans-Bold-6c" x="1226.179688"/>
     <use xlink:href="#DejaVuSans-Bold-6c" x="1260.457031"/>
     <use xlink:href="#DejaVuSans-Bold-73" x="1294.734375"/>
     <use xlink:href="#DejaVuSans-Bold-20" x="1354.255859"/>
     <use xlink:href="#DejaVuSans-Bold-20" x="1389.070312"/>
     <use xlink:href="#DejaVuSans-Bold-28" x="1423.884766"/>
     <use xlink:href="#DejaVuSans-Bold-61" x="1469.587891"/>
     <use xlink:href="#DejaVuSans-Bold-6c" x="1537.068359"/>
     <use xlink:href="#DejaVuSans-Bold-6c" x="1571.345703"/>
     <use xlink:href="#DejaVuSans-Bold-20" x="1605.623047"/>
     <use xlink:href="#DejaVuSans-Bold-32" x="1640.4375"/>
     <use xlink:href="#DejaVuSans-Bold-30" x="1710.017578"/>
     <use xlink:href="#DejaVuSans-Bold-30" x="1779.597656"/>
     <use xlink:href="#DejaVuSans-Bold-30" x="1849.177734"/>
     <use xlink:href="#DejaVuSans-Bold-20" x="1918.757812"/>
     <use xlink:href="#DejaVuSans-Bold-67" x="1953.572266"/>
     <use xlink:href="#DejaVuSans-Bold-65" x="2025.154297"/>
     <use xlink:href="#DejaVuSans-Bold-6e" x="2092.976562"/>
     <use xlink:href="#DejaVuSans-Bold-65" x="2164.167969"/>
     <use xlink:href="#DejaVuSans-Bold-73" x="2231.990234"/>
     <use xlink:href="#DejaVuSans-Bold-29" x="2291.511719"/>
    </g>
   </g>
   <g id="line2d_51">
    <path d="M 59.736919 176.776461 
L 145.727762 170.733833 
L 231.718605 135.237844 
L 317.709449 118.062985 
L 403.700292 92.415591 
" clip-path="url(#pd5373ff0a0)" style="fill: none; stroke: #67000d; stroke-width: 2; stroke-linecap: square"/>
    <defs>
     <path id="mb7cc3c95b9" d="M 0 3.5 
C 0.928211 3.5 1.81853 3.131218 2.474874 2.474874 
C 3.131218 1.81853 3.5 0.928211 3.5 0 
C 3.5 -0.928211 3.131218 -1.81853 2.474874 -2.474874 
C 1.81853 -3.131218 0.928211 -3.5 0 -3.5 
C -0.928211 -3.5 -1.81853 -3.131218 -2.474874 -2.474874 
C -3.131218 -1.81853 -3.5 -0.928211 -3.5 0 
C -3.5 0.928211 -3.131218 1.81853 -2.474874 2.474874 
C -1.81853 3.131218 -0.928211 3.5 0 3.5 
z
" style="stroke: #67000d"/>
    </defs>
    <g clip-path="url(#pd5373ff0a0)">
     <use xlink:href="#mb7cc3c95b9" x="59.736919" y="176.776461" style="fill: #67000d; stroke: #67000d"/>
     <use xlink:href="#mb7cc3c95b9" x="145.727762" y="170.733833" style="fill: #67000d; stroke: #67000d"/>
     <use xlink:href="#mb7cc3c95b9" x="231.718605" y="135.237844" style="fill: #67000d; stroke: #67000d"/>
     <use xlink:href="#mb7cc3c95b9" x="317.709449" y="118.062985" style="fill: #67000d; stroke: #67000d"/>
     <use xlink:href="#mb7cc3c95b9" x="403.700292" y="92.415591" style="fill: #67000d; stroke: #67000d"/>
    </g>
   </g>
   <g id="legend_1">
    <g id="LineCollection_2">
     <path d="M 59.63875 82.608594 
L 59.63875 73.608594 
" style="fill: none; stroke: #67000d; stroke-width: 2"/>
    </g>
    <g id="line2d_52">
     <g>
      <use xlink:href="#m1e8e9ed1a6" x="59.63875" y="82.608594" style="fill: #67000d; stroke: #67000d"/>
     </g>
    </g>
    <g id="line2d_53">
     <g>
      <use xlink:href="#m1e8e9ed1a6" x="59.63875" y="73.608594" style="fill: #67000d; stroke: #67000d"/>
     </g>
    </g>
    <g id="line2d_54">
     <path d="M 50.63875 78.108594 
L 68.63875 78.108594 
" style="fill: none; stroke: #67000d; stroke-width: 2; stroke-linecap: square"/>
    </g>
    <g id="line2d_55">
     <g>
      <use xlink:href="#mb7cc3c95b9" x="59.63875" y="78.108594" style="fill: #67000d; stroke: #67000d"/>
     </g>
    </g>
    <g id="text_23">
     <!-- mean ± SD -->
     <g transform="translate(75.83875 81.258594) scale(0.09 -0.09)">
      <defs>
       <path id="DejaVuSans-b1" d="M 2944 4013 
L 2944 2803 
L 4684 2803 
L 4684 2272 
L 2944 2272 
L 2944 1063 
L 2419 1063 
L 2419 2272 
L 678 2272 
L 678 2803 
L 2419 2803 
L 2419 4013 
L 2944 4013 
z
M 678 531 
L 4684 531 
L 4684 0 
L 678 0 
L 678 531 
z
" transform="scale(0.015625)"/>
       <path id="DejaVuSans-53" d="M 3425 4513 
L 3425 3897 
Q 3066 4069 2747 4153 
Q 2428 4238 2131 4238 
Q 1616 4238 1336 4038 
Q 1056 3838 1056 3469 
Q 1056 3159 1242 3001 
Q 1428 2844 1947 2747 
L 2328 2669 
Q 3034 2534 3370 2195 
Q 3706 1856 3706 1288 
Q 3706 609 3251 259 
Q 2797 -91 1919 -91 
Q 1588 -91 1214 -16 
Q 841 59 441 206 
L 441 856 
Q 825 641 1194 531 
Q 1563 422 1919 422 
Q 2459 422 2753 634 
Q 3047 847 3047 1241 
Q 3047 1584 2836 1778 
Q 2625 1972 2144 2069 
L 1759 2144 
Q 1053 2284 737 2584 
Q 422 2884 422 3419 
Q 422 4038 858 4394 
Q 1294 4750 2059 4750 
Q 2388 4750 2728 4690 
Q 3069 4631 3425 4513 
z
" transform="scale(0.015625)"/>
       <path id="DejaVuSans-44" d="M 1259 4147 
L 1259 519 
L 2022 519 
Q 2988 519 3436 956 
Q 3884 1394 3884 2338 
Q 3884 3275 3436 3711 
Q 2988 4147 2022 4147 
L 1259 4147 
z
M 628 4666 
L 1925 4666 
Q 3281 4666 3915 4102 
Q 4550 3538 4550 2338 
Q 4550 1131 3912 565 
Q 3275 0 1925 0 
L 628 0 
L 628 4666 
z
" transform="scale(0.015625)"/>
      </defs>
      <use xlink:href="#DejaVuSans-6d"/>
      <use xlink:href="#DejaVuSans-65" x="97.412109"/>
      <use xlink:href="#DejaVuSans-61" x="158.935547"/>
      <use xlink:href="#DejaVuSans-6e" x="220.214844"/>
      <use xlink:href="#DejaVuSans-20" x="283.59375"/>
      <use xlink:href="#DejaVuSans-b1" x="315.380859"/>
      <use xlink:href="#DejaVuSans-20" x="399.169922"/>
      <use xlink:href="#DejaVuSans-53" x="430.957031"/>
      <use xlink:href="#DejaVuSans-44" x="494.433594"/>
     </g>
    </g>
   </g>
  </g>
  <g id="axes_2">
   <g id="patch_5">
    <path d="M 470.71375 321.64 
L 849.073461 321.64 
L 849.073461 66.32 
L 470.71375 66.32 
z
" style="fill: #ffffff"/>
   </g>
   <g id="matplotlib.axis_3">
    <g id="xtick_6">
     <g id="line2d_56">
      <g>
       <use xlink:href="#m78f67c57b6" x="487.911919" y="321.64" style="stroke: #000000; stroke-width: 0.8"/>
      </g>
     </g>
     <g id="text_24">
      <!-- 200 -->
      <g transform="translate(479.322544 335.478594) scale(0.09 -0.09)">
       <use xlink:href="#DejaVuSans-32"/>
       <use xlink:href="#DejaVuSans-30" x="63.623047"/>
       <use xlink:href="#DejaVuSans-30" x="127.246094"/>
      </g>
      <!-- (10.0:1) -->
      <g transform="translate(470.001919 345.556625) scale(0.09 -0.09)">
       <use xlink:href="#DejaVuSans-28"/>
       <use xlink:href="#DejaVuSans-31" x="39.013672"/>
       <use xlink:href="#DejaVuSans-30" x="102.636719"/>
       <use xlink:href="#DejaVuSans-2e" x="166.259766"/>
       <use xlink:href="#DejaVuSans-30" x="198.046875"/>
       <use xlink:href="#DejaVuSans-3a" x="261.669922"/>
       <use xlink:href="#DejaVuSans-31" x="295.361328"/>
       <use xlink:href="#DejaVuSans-29" x="358.984375"/>
      </g>
     </g>
    </g>
    <g id="xtick_7">
     <g id="line2d_57">
      <g>
       <use xlink:href="#m78f67c57b6" x="573.902762" y="321.64" style="stroke: #000000; stroke-width: 0.8"/>
      </g>
     </g>
     <g id="text_25">
      <!-- 400 -->
      <g transform="translate(565.313387 335.478594) scale(0.09 -0.09)">
       <use xlink:href="#DejaVuSans-34"/>
       <use xlink:href="#DejaVuSans-30" x="63.623047"/>
       <use xlink:href="#DejaVuSans-30" x="127.246094"/>
      </g>
      <!-- (5.0:1) -->
      <g transform="translate(558.855887 345.556625) scale(0.09 -0.09)">
       <use xlink:href="#DejaVuSans-28"/>
       <use xlink:href="#DejaVuSans-35" x="39.013672"/>
       <use xlink:href="#DejaVuSans-2e" x="102.636719"/>
       <use xlink:href="#DejaVuSans-30" x="134.423828"/>
       <use xlink:href="#DejaVuSans-3a" x="198.046875"/>
       <use xlink:href="#DejaVuSans-31" x="231.738281"/>
       <use xlink:href="#DejaVuSans-29" x="295.361328"/>
      </g>
     </g>
    </g>
    <g id="xtick_8">
     <g id="line2d_58">
      <g>
       <use xlink:href="#m78f67c57b6" x="659.893605" y="321.64" style="stroke: #000000; stroke-width: 0.8"/>
      </g>
     </g>
     <g id="text_26">
      <!-- 600 -->
      <g transform="translate(651.30423 335.478594) scale(0.09 -0.09)">
       <use xlink:href="#DejaVuSans-36"/>
       <use xlink:href="#DejaVuSans-30" x="63.623047"/>
       <use xlink:href="#DejaVuSans-30" x="127.246094"/>
      </g>
      <!-- (3.3:1) -->
      <g transform="translate(644.84673 345.556625) scale(0.09 -0.09)">
       <use xlink:href="#DejaVuSans-28"/>
       <use xlink:href="#DejaVuSans-33" x="39.013672"/>
       <use xlink:href="#DejaVuSans-2e" x="102.636719"/>
       <use xlink:href="#DejaVuSans-33" x="134.423828"/>
       <use xlink:href="#DejaVuSans-3a" x="198.046875"/>
       <use xlink:href="#DejaVuSans-31" x="231.738281"/>
       <use xlink:href="#DejaVuSans-29" x="295.361328"/>
      </g>
     </g>
    </g>
    <g id="xtick_9">
     <g id="line2d_59">
      <g>
       <use xlink:href="#m78f67c57b6" x="745.884449" y="321.64" style="stroke: #000000; stroke-width: 0.8"/>
      </g>
     </g>
     <g id="text_27">
      <!-- 800 -->
      <g transform="translate(737.295074 335.478594) scale(0.09 -0.09)">
       <use xlink:href="#DejaVuSans-38"/>
       <use xlink:href="#DejaVuSans-30" x="63.623047"/>
       <use xlink:href="#DejaVuSans-30" x="127.246094"/>
      </g>
      <!-- (2.5:1) -->
      <g transform="translate(730.837574 345.556625) scale(0.09 -0.09)">
       <use xlink:href="#DejaVuSans-28"/>
       <use xlink:href="#DejaVuSans-32" x="39.013672"/>
       <use xlink:href="#DejaVuSans-2e" x="102.636719"/>
       <use xlink:href="#DejaVuSans-35" x="134.423828"/>
       <use xlink:href="#DejaVuSans-3a" x="198.046875"/>
       <use xlink:href="#DejaVuSans-31" x="231.738281"/>
       <use xlink:href="#DejaVuSans-29" x="295.361328"/>
      </g>
     </g>
    </g>
    <g id="xtick_10">
     <g id="line2d_60">
      <g>
       <use xlink:href="#m78f67c57b6" x="831.875292" y="321.64" style="stroke: #000000; stroke-width: 0.8"/>
      </g>
     </g>
     <g id="text_28">
      <!-- 1000 -->
      <g transform="translate(820.422792 335.478594) scale(0.09 -0.09)">
       <use xlink:href="#DejaVuSans-31"/>
       <use xlink:href="#DejaVuSans-30" x="63.623047"/>
       <use xlink:href="#DejaVuSans-30" x="127.246094"/>
       <use xlink:href="#DejaVuSans-30" x="190.869141"/>
      </g>
      <!-- (2.0:1) -->
      <g transform="translate(816.828417 345.556625) scale(0.09 -0.09)">
       <use xlink:href="#DejaVuSans-28"/>
       <use xlink:href="#DejaVuSans-32" x="39.013672"/>
       <use xlink:href="#DejaVuSans-2e" x="102.636719"/>
       <use xlink:href="#DejaVuSans-30" x="134.423828"/>
       <use xlink:href="#DejaVuSans-3a" x="198.046875"/>
       <use xlink:href="#DejaVuSans-31" x="231.738281"/>
       <use xlink:href="#DejaVuSans-29" x="295.361328"/>
      </g>
     </g>
    </g>
    <g id="text_29">
     <!-- Cells subsampled  (all 2000 genes;  g:c ratio) -->
     <g transform="translate(535.204308 359.786625) scale(0.11 -0.11)">
      <use xlink:href="#DejaVuSans-43"/>
      <use xlink:href="#DejaVuSans-65" x="69.824219"/>
      <use xlink:href="#DejaVuSans-6c" x="131.347656"/>
      <use xlink:href="#DejaVuSans-6c" x="159.130859"/>
      <use xlink:href="#DejaVuSans-73" x="186.914062"/>
      <use xlink:href="#DejaVuSans-20" x="239.013672"/>
      <use xlink:href="#DejaVuSans-73" x="270.800781"/>
      <use xlink:href="#DejaVuSans-75" x="322.900391"/>
      <use xlink:href="#DejaVuSans-62" x="386.279297"/>
      <use xlink:href="#DejaVuSans-73" x="449.755859"/>
      <use xlink:href="#DejaVuSans-61" x="501.855469"/>
      <use xlink:href="#DejaVuSans-6d" x="563.134766"/>
      <use xlink:href="#DejaVuSans-70" x="660.546875"/>
      <use xlink:href="#DejaVuSans-6c" x="724.023438"/>
      <use xlink:href="#DejaVuSans-65" x="751.806641"/>
      <use xlink:href="#DejaVuSans-64" x="813.330078"/>
      <use xlink:href="#DejaVuSans-20" x="876.806641"/>
      <use xlink:href="#DejaVuSans-20" x="908.59375"/>
      <use xlink:href="#DejaVuSans-28" x="940.380859"/>
      <use xlink:href="#DejaVuSans-61" x="979.394531"/>
      <use xlink:href="#DejaVuSans-6c" x="1040.673828"/>
      <use xlink:href="#DejaVuSans-6c" x="1068.457031"/>
      <use xlink:href="#DejaVuSans-20" x="1096.240234"/>
      <use xlink:href="#DejaVuSans-32" x="1128.027344"/>
      <use xlink:href="#DejaVuSans-30" x="1191.650391"/>
      <use xlink:href="#DejaVuSans-30" x="1255.273438"/>
      <use xlink:href="#DejaVuSans-30" x="1318.896484"/>
      <use xlink:href="#DejaVuSans-20" x="1382.519531"/>
      <use xlink:href="#DejaVuSans-67" x="1414.306641"/>
      <use xlink:href="#DejaVuSans-65" x="1477.783203"/>
      <use xlink:href="#DejaVuSans-6e" x="1539.306641"/>
      <use xlink:href="#DejaVuSans-65" x="1602.685547"/>
      <use xlink:href="#DejaVuSans-73" x="1664.208984"/>
      <use xlink:href="#DejaVuSans-3b" x="1716.308594"/>
      <use xlink:href="#DejaVuSans-20" x="1750"/>
      <use xlink:href="#DejaVuSans-20" x="1781.787109"/>
      <use xlink:href="#DejaVuSans-67" x="1813.574219"/>
      <use xlink:href="#DejaVuSans-3a" x="1877.050781"/>
      <use xlink:href="#DejaVuSans-63" x="1910.742188"/>
      <use xlink:href="#DejaVuSans-20" x="1965.722656"/>
      <use xlink:href="#DejaVuSans-72" x="1997.509766"/>
      <use xlink:href="#DejaVuSans-61" x="2038.623047"/>
      <use xlink:href="#DejaVuSans-74" x="2099.902344"/>
      <use xlink:href="#DejaVuSans-69" x="2139.111328"/>
      <use xlink:href="#DejaVuSans-6f" x="2166.894531"/>
      <use xlink:href="#DejaVuSans-29" x="2228.076172"/>
     </g>
    </g>
   </g>
   <g id="matplotlib.axis_4">
    <g id="ytick_10">
     <g id="line2d_61">
      <path d="M 470.71375 321.64 
L 849.073461 321.64 
" clip-path="url(#p7196837f79)" style="fill: none; stroke-dasharray: 2.96,1.28; stroke-dashoffset: 0; stroke: #b0b0b0; stroke-opacity: 0.25; stroke-width: 0.8"/>
     </g>
     <g id="line2d_62">
      <g>
       <use xlink:href="#m528c80a1c6" x="470.71375" y="321.64" style="stroke: #000000; stroke-width: 0.8"/>
      </g>
     </g>
     <g id="text_30">
      <!-- 0.0 -->
      <g transform="translate(447.810625 325.439219) scale(0.1 -0.1)">
       <use xlink:href="#DejaVuSans-30"/>
       <use xlink:href="#DejaVuSans-2e" x="63.623047"/>
       <use xlink:href="#DejaVuSans-30" x="95.410156"/>
      </g>
     </g>
    </g>
    <g id="ytick_11">
     <g id="line2d_63">
      <path d="M 470.71375 277.236522 
L 849.073461 277.236522 
" clip-path="url(#p7196837f79)" style="fill: none; stroke-dasharray: 2.96,1.28; stroke-dashoffset: 0; stroke: #b0b0b0; stroke-opacity: 0.25; stroke-width: 0.8"/>
     </g>
     <g id="line2d_64">
      <g>
       <use xlink:href="#m528c80a1c6" x="470.71375" y="277.236522" style="stroke: #000000; stroke-width: 0.8"/>
      </g>
     </g>
     <g id="text_31">
      <!-- 0.2 -->
      <g transform="translate(447.810625 281.03574) scale(0.1 -0.1)">
       <use xlink:href="#DejaVuSans-30"/>
       <use xlink:href="#DejaVuSans-2e" x="63.623047"/>
       <use xlink:href="#DejaVuSans-32" x="95.410156"/>
      </g>
     </g>
    </g>
    <g id="ytick_12">
     <g id="line2d_65">
      <path d="M 470.71375 232.833043 
L 849.073461 232.833043 
" clip-path="url(#p7196837f79)" style="fill: none; stroke-dasharray: 2.96,1.28; stroke-dashoffset: 0; stroke: #b0b0b0; stroke-opacity: 0.25; stroke-width: 0.8"/>
     </g>
     <g id="line2d_66">
      <g>
       <use xlink:href="#m528c80a1c6" x="470.71375" y="232.833043" style="stroke: #000000; stroke-width: 0.8"/>
      </g>
     </g>
     <g id="text_32">
      <!-- 0.4 -->
      <g transform="translate(447.810625 236.632262) scale(0.1 -0.1)">
       <use xlink:href="#DejaVuSans-30"/>
       <use xlink:href="#DejaVuSans-2e" x="63.623047"/>
       <use xlink:href="#DejaVuSans-34" x="95.410156"/>
      </g>
     </g>
    </g>
    <g id="ytick_13">
     <g id="line2d_67">
      <path d="M 470.71375 188.429565 
L 849.073461 188.429565 
" clip-path="url(#p7196837f79)" style="fill: none; stroke-dasharray: 2.96,1.28; stroke-dashoffset: 0; stroke: #b0b0b0; stroke-opacity: 0.25; stroke-width: 0.8"/>
     </g>
     <g id="line2d_68">
      <g>
       <use xlink:href="#m528c80a1c6" x="470.71375" y="188.429565" style="stroke: #000000; stroke-width: 0.8"/>
      </g>
     </g>
     <g id="text_33">
      <!-- 0.6 -->
      <g transform="translate(447.810625 192.228784) scale(0.1 -0.1)">
       <use xlink:href="#DejaVuSans-30"/>
       <use xlink:href="#DejaVuSans-2e" x="63.623047"/>
       <use xlink:href="#DejaVuSans-36" x="95.410156"/>
      </g>
     </g>
    </g>
    <g id="ytick_14">
     <g id="line2d_69">
      <path d="M 470.71375 144.026087 
L 849.073461 144.026087 
" clip-path="url(#p7196837f79)" style="fill: none; stroke-dasharray: 2.96,1.28; stroke-dashoffset: 0; stroke: #b0b0b0; stroke-opacity: 0.25; stroke-width: 0.8"/>
     </g>
     <g id="line2d_70">
      <g>
       <use xlink:href="#m528c80a1c6" x="470.71375" y="144.026087" style="stroke: #000000; stroke-width: 0.8"/>
      </g>
     </g>
     <g id="text_34">
      <!-- 0.8 -->
      <g transform="translate(447.810625 147.825306) scale(0.1 -0.1)">
       <use xlink:href="#DejaVuSans-30"/>
       <use xlink:href="#DejaVuSans-2e" x="63.623047"/>
       <use xlink:href="#DejaVuSans-38" x="95.410156"/>
      </g>
     </g>
    </g>
    <g id="ytick_15">
     <g id="line2d_71">
      <path d="M 470.71375 99.622609 
L 849.073461 99.622609 
" clip-path="url(#p7196837f79)" style="fill: none; stroke-dasharray: 2.96,1.28; stroke-dashoffset: 0; stroke: #b0b0b0; stroke-opacity: 0.25; stroke-width: 0.8"/>
     </g>
     <g id="line2d_72">
      <g>
       <use xlink:href="#m528c80a1c6" x="470.71375" y="99.622609" style="stroke: #000000; stroke-width: 0.8"/>
      </g>
     </g>
     <g id="text_35">
      <!-- 1.0 -->
      <g transform="translate(447.810625 103.421827) scale(0.1 -0.1)">
       <use xlink:href="#DejaVuSans-31"/>
       <use xlink:href="#DejaVuSans-2e" x="63.623047"/>
       <use xlink:href="#DejaVuSans-30" x="95.410156"/>
      </g>
     </g>
    </g>
    <g id="text_36">
     <!-- Fraction of full-size (1000-cell) GMP-Cor -->
     <g transform="translate(441.315 312.630937) rotate(-90) scale(0.12 -0.12)">
      <defs>
       <path id="DejaVuSans-46" d="M 628 4666 
L 3309 4666 
L 3309 4134 
L 1259 4134 
L 1259 2759 
L 3109 2759 
L 3109 2228 
L 1259 2228 
L 1259 0 
L 628 0 
L 628 4666 
z
" transform="scale(0.015625)"/>
       <path id="DejaVuSans-66" d="M 2375 4863 
L 2375 4384 
L 1825 4384 
Q 1516 4384 1395 4259 
Q 1275 4134 1275 3809 
L 1275 3500 
L 2222 3500 
L 2222 3053 
L 1275 3053 
L 1275 0 
L 697 0 
L 697 3053 
L 147 3053 
L 147 3500 
L 697 3500 
L 697 3744 
Q 697 4328 969 4595 
Q 1241 4863 1831 4863 
L 2375 4863 
z
" transform="scale(0.015625)"/>
       <path id="DejaVuSans-7a" d="M 353 3500 
L 3084 3500 
L 3084 2975 
L 922 459 
L 3084 459 
L 3084 0 
L 275 0 
L 275 525 
L 2438 3041 
L 353 3041 
L 353 3500 
z
" transform="scale(0.015625)"/>
      </defs>
      <use xlink:href="#DejaVuSans-46"/>
      <use xlink:href="#DejaVuSans-72" x="50.269531"/>
      <use xlink:href="#DejaVuSans-61" x="91.382812"/>
      <use xlink:href="#DejaVuSans-63" x="152.662109"/>
      <use xlink:href="#DejaVuSans-74" x="207.642578"/>
      <use xlink:href="#DejaVuSans-69" x="246.851562"/>
      <use xlink:href="#DejaVuSans-6f" x="274.634766"/>
      <use xlink:href="#DejaVuSans-6e" x="335.816406"/>
      <use xlink:href="#DejaVuSans-20" x="399.195312"/>
      <use xlink:href="#DejaVuSans-6f" x="430.982422"/>
      <use xlink:href="#DejaVuSans-66" x="492.164062"/>
      <use xlink:href="#DejaVuSans-20" x="527.369141"/>
      <use xlink:href="#DejaVuSans-66" x="559.15625"/>
      <use xlink:href="#DejaVuSans-75" x="594.361328"/>
      <use xlink:href="#DejaVuSans-6c" x="657.740234"/>
      <use xlink:href="#DejaVuSans-6c" x="685.523438"/>
      <use xlink:href="#DejaVuSans-2d" x="713.306641"/>
      <use xlink:href="#DejaVuSans-73" x="749.390625"/>
      <use xlink:href="#DejaVuSans-69" x="801.490234"/>
      <use xlink:href="#DejaVuSans-7a" x="829.273438"/>
      <use xlink:href="#DejaVuSans-65" x="881.763672"/>
      <use xlink:href="#DejaVuSans-20" x="943.287109"/>
      <use xlink:href="#DejaVuSans-28" x="975.074219"/>
      <use xlink:href="#DejaVuSans-31" x="1014.087891"/>
      <use xlink:href="#DejaVuSans-30" x="1077.710938"/>
      <use xlink:href="#DejaVuSans-30" x="1141.333984"/>
      <use xlink:href="#DejaVuSans-30" x="1204.957031"/>
      <use xlink:href="#DejaVuSans-2d" x="1268.580078"/>
      <use xlink:href="#DejaVuSans-63" x="1304.664062"/>
      <use xlink:href="#DejaVuSans-65" x="1359.644531"/>
      <use xlink:href="#DejaVuSans-6c" x="1421.167969"/>
      <use xlink:href="#DejaVuSans-6c" x="1448.951172"/>
      <use xlink:href="#DejaVuSans-29" x="1476.734375"/>
      <use xlink:href="#DejaVuSans-20" x="1515.748047"/>
      <use xlink:href="#DejaVuSans-47" x="1547.535156"/>
      <use xlink:href="#DejaVuSans-4d" x="1625.025391"/>
      <use xlink:href="#DejaVuSans-50" x="1711.304688"/>
      <use xlink:href="#DejaVuSans-2d" x="1769.357422"/>
      <use xlink:href="#DejaVuSans-43" x="1805.441406"/>
      <use xlink:href="#DejaVuSans-6f" x="1875.265625"/>
      <use xlink:href="#DejaVuSans-72" x="1936.447266"/>
     </g>
    </g>
   </g>
   <g id="line2d_73">
    <path d="M 470.71375 99.622609 
L 849.073461 99.622609 
" clip-path="url(#p7196837f79)" style="fill: none; stroke-dasharray: 3.7,1.6; stroke-dashoffset: 0; stroke: #808080; stroke-opacity: 0.7"/>
   </g>
   <g id="line2d_74">
    <path d="M 487.911919 181.331098 
L 573.902762 175.478455 
L 659.893605 141.098492 
L 745.884449 124.463626 
L 831.875292 99.622609 
" clip-path="url(#p7196837f79)" style="fill: none; stroke: #67000d; stroke-width: 2; stroke-linecap: square"/>
    <g clip-path="url(#p7196837f79)">
     <use xlink:href="#mb7cc3c95b9" x="487.911919" y="181.331098" style="fill: #67000d; stroke: #67000d"/>
     <use xlink:href="#mb7cc3c95b9" x="573.902762" y="175.478455" style="fill: #67000d; stroke: #67000d"/>
     <use xlink:href="#mb7cc3c95b9" x="659.893605" y="141.098492" style="fill: #67000d; stroke: #67000d"/>
     <use xlink:href="#mb7cc3c95b9" x="745.884449" y="124.463626" style="fill: #67000d; stroke: #67000d"/>
     <use xlink:href="#mb7cc3c95b9" x="831.875292" y="99.622609" style="fill: #67000d; stroke: #67000d"/>
    </g>
   </g>
   <g id="patch_6">
    <path d="M 470.71375 321.64 
L 470.71375 66.32 
" style="fill: none; stroke: #000000; stroke-width: 0.8; stroke-linejoin: miter; stroke-linecap: square"/>
   </g>
   <g id="patch_7">
    <path d="M 470.71375 321.64 
L 849.073461 321.64 
" style="fill: none; stroke: #000000; stroke-width: 0.8; stroke-linejoin: miter; stroke-linecap: square"/>
   </g>
   <g id="text_37">
    <!-- 0.63 -->
    <g style="fill: #67000d" transform="translate(477.892387 172.798858) scale(0.09 -0.09)">
     <use xlink:href="#DejaVuSans-30"/>
     <use xlink:href="#DejaVuSans-2e" x="63.623047"/>
     <use xlink:href="#DejaVuSans-36" x="95.410156"/>
     <use xlink:href="#DejaVuSans-33" x="159.033203"/>
    </g>
   </g>
   <g id="text_38">
    <!-- 0.66 -->
    <g style="fill: #67000d" transform="translate(563.883231 166.946215) scale(0.09 -0.09)">
     <use xlink:href="#DejaVuSans-30"/>
     <use xlink:href="#DejaVuSans-2e" x="63.623047"/>
     <use xlink:href="#DejaVuSans-36" x="95.410156"/>
     <use xlink:href="#DejaVuSans-36" x="159.033203"/>
    </g>
   </g>
   <g id="text_39">
    <!-- 0.81 -->
    <g style="fill: #67000d" transform="translate(649.874074 132.566251) scale(0.09 -0.09)">
     <use xlink:href="#DejaVuSans-30"/>
     <use xlink:href="#DejaVuSans-2e" x="63.623047"/>
     <use xlink:href="#DejaVuSans-38" x="95.410156"/>
     <use xlink:href="#DejaVuSans-31" x="159.033203"/>
    </g>
   </g>
   <g id="text_40">
    <!-- 0.89 -->
    <g style="fill: #67000d" transform="translate(735.864917 115.931385) scale(0.09 -0.09)">
     <use xlink:href="#DejaVuSans-30"/>
     <use xlink:href="#DejaVuSans-2e" x="63.623047"/>
     <use xlink:href="#DejaVuSans-38" x="95.410156"/>
     <use xlink:href="#DejaVuSans-39" x="159.033203"/>
    </g>
   </g>
   <g id="text_41">
    <!-- 1.00 -->
    <g style="fill: #67000d" transform="translate(821.855761 91.090368) scale(0.09 -0.09)">
     <use xlink:href="#DejaVuSans-31"/>
     <use xlink:href="#DejaVuSans-2e" x="63.623047"/>
     <use xlink:href="#DejaVuSans-30" x="95.410156"/>
     <use xlink:href="#DejaVuSans-30" x="159.033203"/>
    </g>
   </g>
   <g id="text_42">
    <!-- B  Signal retained under cell subsampling -->
    <g transform="translate(470.71375 58.32) scale(0.12 -0.12)">
     <defs>
      <path id="DejaVuSans-Bold-42" d="M 2456 2859 
Q 2741 2859 2887 2984 
Q 3034 3109 3034 3353 
Q 3034 3594 2887 3720 
Q 2741 3847 2456 3847 
L 1791 3847 
L 1791 2859 
L 2456 2859 
z
M 2497 819 
Q 2859 819 3042 972 
Q 3225 1125 3225 1434 
Q 3225 1738 3044 1889 
Q 2863 2041 2497 2041 
L 1791 2041 
L 1791 819 
L 2497 819 
z
M 3616 2497 
Q 4003 2384 4215 2081 
Q 4428 1778 4428 1338 
Q 4428 663 3972 331 
Q 3516 0 2584 0 
L 588 0 
L 588 4666 
L 2394 4666 
Q 3366 4666 3802 4372 
Q 4238 4078 4238 3431 
Q 4238 3091 4078 2852 
Q 3919 2613 3616 2497 
z
" transform="scale(0.015625)"/>
      <path id="DejaVuSans-Bold-53" d="M 3834 4519 
L 3834 3531 
Q 3450 3703 3084 3790 
Q 2719 3878 2394 3878 
Q 1963 3878 1756 3759 
Q 1550 3641 1550 3391 
Q 1550 3203 1689 3098 
Q 1828 2994 2194 2919 
L 2706 2816 
Q 3484 2659 3812 2340 
Q 4141 2022 4141 1434 
Q 4141 663 3683 286 
Q 3225 -91 2284 -91 
Q 1841 -91 1394 -6 
Q 947 78 500 244 
L 500 1259 
Q 947 1022 1364 901 
Q 1781 781 2169 781 
Q 2563 781 2772 912 
Q 2981 1044 2981 1288 
Q 2981 1506 2839 1625 
Q 2697 1744 2272 1838 
L 1806 1941 
Q 1106 2091 782 2419 
Q 459 2747 459 3303 
Q 459 4000 909 4375 
Q 1359 4750 2203 4750 
Q 2588 4750 2994 4692 
Q 3400 4634 3834 4519 
z
" transform="scale(0.015625)"/>
      <path id="DejaVuSans-Bold-69" d="M 538 3500 
L 1656 3500 
L 1656 0 
L 538 0 
L 538 3500 
z
M 538 4863 
L 1656 4863 
L 1656 3950 
L 538 3950 
L 538 4863 
z
" transform="scale(0.015625)"/>
      <path id="DejaVuSans-Bold-74" d="M 1759 4494 
L 1759 3500 
L 2913 3500 
L 2913 2700 
L 1759 2700 
L 1759 1216 
Q 1759 972 1856 886 
Q 1953 800 2241 800 
L 2816 800 
L 2816 0 
L 1856 0 
Q 1194 0 917 276 
Q 641 553 641 1216 
L 641 2700 
L 84 2700 
L 84 3500 
L 641 3500 
L 641 4494 
L 1759 4494 
z
" transform="scale(0.015625)"/>
      <path id="DejaVuSans-Bold-64" d="M 2919 2988 
L 2919 4863 
L 4044 4863 
L 4044 0 
L 2919 0 
L 2919 506 
Q 2688 197 2409 53 
Q 2131 -91 1766 -91 
Q 1119 -91 703 423 
Q 288 938 288 1747 
Q 288 2556 703 3070 
Q 1119 3584 1766 3584 
Q 2128 3584 2408 3439 
Q 2688 3294 2919 2988 
z
M 2181 722 
Q 2541 722 2730 984 
Q 2919 1247 2919 1747 
Q 2919 2247 2730 2509 
Q 2541 2772 2181 2772 
Q 1825 2772 1636 2509 
Q 1447 2247 1447 1747 
Q 1447 1247 1636 984 
Q 1825 722 2181 722 
z
" transform="scale(0.015625)"/>
      <path id="DejaVuSans-Bold-75" d="M 500 1363 
L 500 3500 
L 1625 3500 
L 1625 3150 
Q 1625 2866 1622 2436 
Q 1619 2006 1619 1863 
Q 1619 1441 1641 1255 
Q 1663 1069 1716 984 
Q 1784 875 1895 815 
Q 2006 756 2150 756 
Q 2500 756 2700 1025 
Q 2900 1294 2900 1772 
L 2900 3500 
L 4019 3500 
L 4019 0 
L 2900 0 
L 2900 506 
Q 2647 200 2364 54 
Q 2081 -91 1741 -91 
Q 1134 -91 817 281 
Q 500 653 500 1363 
z
" transform="scale(0.015625)"/>
      <path id="DejaVuSans-Bold-62" d="M 2400 722 
Q 2759 722 2948 984 
Q 3138 1247 3138 1747 
Q 3138 2247 2948 2509 
Q 2759 2772 2400 2772 
Q 2041 2772 1848 2508 
Q 1656 2244 1656 1747 
Q 1656 1250 1848 986 
Q 2041 722 2400 722 
z
M 1656 2988 
Q 1888 3294 2169 3439 
Q 2450 3584 2816 3584 
Q 3463 3584 3878 3070 
Q 4294 2556 4294 1747 
Q 4294 938 3878 423 
Q 3463 -91 2816 -91 
Q 2450 -91 2169 54 
Q 1888 200 1656 506 
L 1656 0 
L 538 0 
L 538 4863 
L 1656 4863 
L 1656 2988 
z
" transform="scale(0.015625)"/>
      <path id="DejaVuSans-Bold-6d" d="M 3781 2919 
Q 3994 3244 4286 3414 
Q 4578 3584 4928 3584 
Q 5531 3584 5847 3212 
Q 6163 2841 6163 2131 
L 6163 0 
L 5038 0 
L 5038 1825 
Q 5041 1866 5042 1909 
Q 5044 1953 5044 2034 
Q 5044 2406 4934 2573 
Q 4825 2741 4581 2741 
Q 4263 2741 4089 2478 
Q 3916 2216 3909 1719 
L 3909 0 
L 2784 0 
L 2784 1825 
Q 2784 2406 2684 2573 
Q 2584 2741 2328 2741 
Q 2006 2741 1831 2477 
Q 1656 2213 1656 1722 
L 1656 0 
L 531 0 
L 531 3500 
L 1656 3500 
L 1656 2988 
Q 1863 3284 2130 3434 
Q 2397 3584 2719 3584 
Q 3081 3584 3359 3409 
Q 3638 3234 3781 2919 
z
" transform="scale(0.015625)"/>
      <path id="DejaVuSans-Bold-70" d="M 1656 506 
L 1656 -1331 
L 538 -1331 
L 538 3500 
L 1656 3500 
L 1656 2988 
Q 1888 3294 2169 3439 
Q 2450 3584 2816 3584 
Q 3463 3584 3878 3070 
Q 4294 2556 4294 1747 
Q 4294 938 3878 423 
Q 3463 -91 2816 -91 
Q 2450 -91 2169 54 
Q 1888 200 1656 506 
z
M 2400 2772 
Q 2041 2772 1848 2508 
Q 1656 2244 1656 1747 
Q 1656 1250 1848 986 
Q 2041 722 2400 722 
Q 2759 722 2948 984 
Q 3138 1247 3138 1747 
Q 3138 2247 2948 2509 
Q 2759 2772 2400 2772 
z
" transform="scale(0.015625)"/>
     </defs>
     <use xlink:href="#DejaVuSans-Bold-42"/>
     <use xlink:href="#DejaVuSans-Bold-20" x="76.220703"/>
     <use xlink:href="#DejaVuSans-Bold-20" x="111.035156"/>
     <use xlink:href="#DejaVuSans-Bold-53" x="145.849609"/>
     <use xlink:href="#DejaVuSans-Bold-69" x="217.871094"/>
     <use xlink:href="#DejaVuSans-Bold-67" x="252.148438"/>
     <use xlink:href="#DejaVuSans-Bold-6e" x="323.730469"/>
     <use xlink:href="#DejaVuSans-Bold-61" x="394.921875"/>
     <use xlink:href="#DejaVuSans-Bold-6c" x="462.402344"/>
     <use xlink:href="#DejaVuSans-Bold-20" x="496.679688"/>
     <use xlink:href="#DejaVuSans-Bold-72" x="531.494141"/>
     <use xlink:href="#DejaVuSans-Bold-65" x="580.810547"/>
     <use xlink:href="#DejaVuSans-Bold-74" x="648.632812"/>
     <use xlink:href="#DejaVuSans-Bold-61" x="696.435547"/>
     <use xlink:href="#DejaVuSans-Bold-69" x="763.916016"/>
     <use xlink:href="#DejaVuSans-Bold-6e" x="798.193359"/>
     <use xlink:href="#DejaVuSans-Bold-65" x="869.384766"/>
     <use xlink:href="#DejaVuSans-Bold-64" x="937.207031"/>
     <use xlink:href="#DejaVuSans-Bold-20" x="1008.789062"/>
     <use xlink:href="#DejaVuSans-Bold-75" x="1043.603516"/>
     <use xlink:href="#DejaVuSans-Bold-6e" x="1114.794922"/>
     <use xlink:href="#DejaVuSans-Bold-64" x="1185.986328"/>
     <use xlink:href="#DejaVuSans-Bold-65" x="1257.568359"/>
     <use xlink:href="#DejaVuSans-Bold-72" x="1325.390625"/>
     <use xlink:href="#DejaVuSans-Bold-20" x="1374.707031"/>
     <use xlink:href="#DejaVuSans-Bold-63" x="1409.521484"/>
     <use xlink:href="#DejaVuSans-Bold-65" x="1468.798828"/>
     <use xlink:href="#DejaVuSans-Bold-6c" x="1536.621094"/>
     <use xlink:href="#DejaVuSans-Bold-6c" x="1570.898438"/>
     <use xlink:href="#DejaVuSans-Bold-20" x="1605.175781"/>
     <use xlink:href="#DejaVuSans-Bold-73" x="1639.990234"/>
     <use xlink:href="#DejaVuSans-Bold-75" x="1699.511719"/>
     <use xlink:href="#DejaVuSans-Bold-62" x="1770.703125"/>
     <use xlink:href="#DejaVuSans-Bold-73" x="1842.285156"/>
     <use xlink:href="#DejaVuSans-Bold-61" x="1901.806641"/>
     <use xlink:href="#DejaVuSans-Bold-6d" x="1969.287109"/>
     <use xlink:href="#DejaVuSans-Bold-70" x="2073.486328"/>
     <use xlink:href="#DejaVuSans-Bold-6c" x="2145.068359"/>
     <use xlink:href="#DejaVuSans-Bold-69" x="2179.345703"/>
     <use xlink:href="#DejaVuSans-Bold-6e" x="2213.623047"/>
     <use xlink:href="#DejaVuSans-Bold-67" x="2284.814453"/>
    </g>
   </g>
  </g>
  <g id="text_43">
   <!-- Subsampling robustness — all 2000 genes retained (ρ = 0.9) -->
   <g transform="translate(189.628594 17.837812) scale(0.14 -0.14)">
    <defs>
     <path id="DejaVuSans-Bold-2014" d="M 344 2156 
L 6056 2156 
L 6056 1350 
L 344 1350 
L 344 2156 
z
" transform="scale(0.015625)"/>
     <path id="DejaVuSans-Bold-3c1" d="M 1003 3013 
Q 1425 3413 1809 3500 
Q 2203 3594 2581 3594 
Q 2700 3594 2816 3584 
Q 3425 3538 3878 3069 
Q 4294 2631 4294 1747 
Q 4294 938 3878 423 
Q 3463 -91 2816 -91 
Q 2450 -91 2169 54 
Q 1888 200 1656 506 
L 1656 -1331 
L 538 -1331 
L 538 1688 
Q 538 2566 1003 3013 
z
M 2400 2772 
Q 2041 2772 1848 2508 
Q 1656 2244 1656 1747 
Q 1656 1250 1848 986 
Q 2041 722 2400 722 
Q 2759 722 2948 984 
Q 3138 1247 3138 1747 
Q 3138 2247 2948 2509 
Q 2759 2772 2400 2772 
z
" transform="scale(0.015625)"/>
     <path id="DejaVuSans-Bold-3d" d="M 678 3084 
L 4684 3084 
L 4684 2350 
L 678 2350 
L 678 3084 
z
M 678 1663 
L 4684 1663 
L 4684 922 
L 678 922 
L 678 1663 
z
" transform="scale(0.015625)"/>
     <path id="DejaVuSans-Bold-2e" d="M 653 1209 
L 1778 1209 
L 1778 0 
L 653 0 
L 653 1209 
z
" transform="scale(0.015625)"/>
     <path id="DejaVuSans-Bold-39" d="M 641 103 
L 641 966 
Q 928 831 1190 764 
Q 1453 697 1709 697 
Q 2247 697 2547 995 
Q 2847 1294 2900 1881 
Q 2688 1725 2447 1647 
Q 2206 1569 1925 1569 
Q 1209 1569 770 1986 
Q 331 2403 331 3084 
Q 331 3838 820 4291 
Q 1309 4744 2131 4744 
Q 3044 4744 3544 4128 
Q 4044 3513 4044 2388 
Q 4044 1231 3459 570 
Q 2875 -91 1856 -91 
Q 1528 -91 1228 -42 
Q 928 6 641 103 
z
M 2125 2350 
Q 2441 2350 2600 2554 
Q 2759 2759 2759 3169 
Q 2759 3575 2600 3781 
Q 2441 3988 2125 3988 
Q 1809 3988 1650 3781 
Q 1491 3575 1491 3169 
Q 1491 2759 1650 2554 
Q 1809 2350 2125 2350 
z
" transform="scale(0.015625)"/>
    </defs>
    <use xlink:href="#DejaVuSans-Bold-53"/>
    <use xlink:href="#DejaVuSans-Bold-75" x="72.021484"/>
    <use xlink:href="#DejaVuSans-Bold-62" x="143.212891"/>
    <use xlink:href="#DejaVuSans-Bold-73" x="214.794922"/>
    <use xlink:href="#DejaVuSans-Bold-61" x="274.316406"/>
    <use xlink:href="#DejaVuSans-Bold-6d" x="341.796875"/>
    <use xlink:href="#DejaVuSans-Bold-70" x="445.996094"/>
    <use xlink:href="#DejaVuSans-Bold-6c" x="517.578125"/>
    <use xlink:href="#DejaVuSans-Bold-69" x="551.855469"/>
    <use xlink:href="#DejaVuSans-Bold-6e" x="586.132812"/>
    <use xlink:href="#DejaVuSans-Bold-67" x="657.324219"/>
    <use xlink:href="#DejaVuSans-Bold-20" x="728.90625"/>
    <use xlink:href="#DejaVuSans-Bold-72" x="763.720703"/>
    <use xlink:href="#DejaVuSans-Bold-6f" x="813.037109"/>
    <use xlink:href="#DejaVuSans-Bold-62" x="881.738281"/>
    <use xlink:href="#DejaVuSans-Bold-75" x="953.320312"/>
    <use xlink:href="#DejaVuSans-Bold-73" x="1024.511719"/>
    <use xlink:href="#DejaVuSans-Bold-74" x="1084.033203"/>
    <use xlink:href="#DejaVuSans-Bold-6e" x="1131.835938"/>
    <use xlink:href="#DejaVuSans-Bold-65" x="1203.027344"/>
    <use xlink:href="#DejaVuSans-Bold-73" x="1270.849609"/>
    <use xlink:href="#DejaVuSans-Bold-73" x="1330.371094"/>
    <use xlink:href="#DejaVuSans-Bold-20" x="1389.892578"/>
    <use xlink:href="#DejaVuSans-Bold-2014" x="1424.707031"/>
    <use xlink:href="#DejaVuSans-Bold-20" x="1524.707031"/>
    <use xlink:href="#DejaVuSans-Bold-61" x="1559.521484"/>
    <use xlink:href="#DejaVuSans-Bold-6c" x="1627.001953"/>
    <use xlink:href="#DejaVuSans-Bold-6c" x="1661.279297"/>
    <use xlink:href="#DejaVuSans-Bold-20" x="1695.556641"/>
    <use xlink:href="#DejaVuSans-Bold-32" x="1730.371094"/>
    <use xlink:href="#DejaVuSans-Bold-30" x="1799.951172"/>
    <use xlink:href="#DejaVuSans-Bold-30" x="1869.53125"/>
    <use xlink:href="#DejaVuSans-Bold-30" x="1939.111328"/>
    <use xlink:href="#DejaVuSans-Bold-20" x="2008.691406"/>
    <use xlink:href="#DejaVuSans-Bold-67" x="2043.505859"/>
    <use xlink:href="#DejaVuSans-Bold-65" x="2115.087891"/>
    <use xlink:href="#DejaVuSans-Bold-6e" x="2182.910156"/>
    <use xlink:href="#DejaVuSans-Bold-65" x="2254.101562"/>
    <use xlink:href="#DejaVuSans-Bold-73" x="2321.923828"/>
    <use xlink:href="#DejaVuSans-Bold-20" x="2381.445312"/>
    <use xlink:href="#DejaVuSans-Bold-72" x="2416.259766"/>
    <use xlink:href="#DejaVuSans-Bold-65" x="2465.576172"/>
    <use xlink:href="#DejaVuSans-Bold-74" x="2533.398438"/>
    <use xlink:href="#DejaVuSans-Bold-61" x="2581.201172"/>
    <use xlink:href="#DejaVuSans-Bold-69" x="2648.681641"/>
    <use xlink:href="#DejaVuSans-Bold-6e" x="2682.958984"/>
    <use xlink:href="#DejaVuSans-Bold-65" x="2754.150391"/>
    <use xlink:href="#DejaVuSans-Bold-64" x="2821.972656"/>
    <use xlink:href="#DejaVuSans-Bold-20" x="2893.554688"/>
    <use xlink:href="#DejaVuSans-Bold-28" x="2928.369141"/>
    <use xlink:href="#DejaVuSans-Bold-3c1" x="2974.072266"/>
    <use xlink:href="#DejaVuSans-Bold-20" x="3045.654297"/>
    <use xlink:href="#DejaVuSans-Bold-3d" x="3080.46875"/>
    <use xlink:href="#DejaVuSans-Bold-20" x="3164.257812"/>
    <use xlink:href="#DejaVuSans-Bold-30" x="3199.072266"/>
    <use xlink:href="#DejaVuSans-Bold-2e" x="3268.652344"/>
    <use xlink:href="#DejaVuSans-Bold-39" x="3306.640625"/>
    <use xlink:href="#DejaVuSans-Bold-29" x="3376.220703"/>
   </g>
  </g>
 </g>
 <defs>
  <clipPath id="pd5373ff0a0">
   <rect x="42.53875" y="66.32" width="378.359711" height="255.32"/>
  </clipPath>
  <clipPath id="p7196837f79">
   <rect x="470.71375" y="66.32" width="378.359711" height="255.32"/>
  </clipPath>
 </defs>
</svg>
